<svg width="457" height="58" viewBox="0 0 457 58" fill="none" xmlns="http://www.w3.org/2000/svg">
<g filter="url(#filter0_d_4_18)">
<mask id="path-1-outside-1_4_18" maskUnits="userSpaceOnUse" x="6" y="2" width="445" height="46" fill="black">
<rect fill="white" x="6" y="2" width="445" height="46"/>
<path d="M27.6602 4.96C31.0576 4.96 34.0816 5.59466 36.7322 6.864C39.4202 8.096 41.6042 9.86933 43.2842 12.184C44.9642 14.4613 46.1029 17.112 46.7002 20.136H35.1082C34.4736 18.568 33.4842 17.3547 32.1402 16.496C30.7962 15.6 29.2469 15.152 27.4922 15.152C25.0656 15.152 23.1056 16.0667 21.6122 17.896C20.1189 19.688 19.3722 22.096 19.3722 25.12C19.3722 28.144 20.1189 30.5707 21.6122 32.4C23.1056 34.2293 25.0656 35.144 27.4922 35.144C29.2469 35.144 30.7962 34.696 32.1402 33.8C33.4842 32.904 34.4736 31.672 35.1082 30.104H46.7002C45.8042 34.7333 43.6762 38.4293 40.3162 41.192C36.9936 43.9173 32.7749 45.28 27.6602 45.28C23.7402 45.28 20.3056 44.44 17.3562 42.76C14.4442 41.0427 12.1856 38.6533 10.5802 35.592C9.01222 32.5307 8.22822 29.04 8.22822 25.12C8.22822 21.2 9.01222 17.7093 10.5802 14.648C12.1856 11.5867 14.4442 9.216 17.3562 7.536C20.3056 5.81866 23.7402 4.96 27.6602 4.96ZM87.0697 5.352V45H76.0937V28.984H62.6537V45H51.6217V5.352H62.6537V20.192H76.0937V5.352H87.0697ZM112.28 4.736C116.013 4.736 119.411 5.61333 122.472 7.368C125.571 9.08533 127.997 11.4933 129.752 14.592C131.544 17.6907 132.44 21.1813 132.44 25.064C132.44 28.9467 131.544 32.4373 129.752 35.536C127.96 38.6347 125.515 41.0613 122.416 42.816C119.355 44.5333 115.976 45.392 112.28 45.392C108.584 45.392 105.187 44.5333 102.088 42.816C98.9895 41.0613 96.5442 38.6347 94.7522 35.536C92.9602 32.4373 92.0642 28.9467 92.0642 25.064C92.0642 21.1813 92.9602 17.6907 94.7522 14.592C96.5442 11.4933 98.9895 9.08533 102.088 7.368C105.187 5.61333 108.584 4.736 112.28 4.736ZM112.28 14.928C109.48 14.928 107.277 15.8427 105.672 17.672C104.067 19.464 103.264 21.928 103.264 25.064C103.264 28.1253 104.067 30.5707 105.672 32.4C107.277 34.2293 109.48 35.144 112.28 35.144C115.043 35.144 117.227 34.2293 118.832 32.4C120.437 30.5707 121.24 28.1253 121.24 25.064C121.24 21.928 120.437 19.464 118.832 17.672C117.264 15.8427 115.08 14.928 112.28 14.928ZM156.468 4.736C160.201 4.736 163.598 5.61333 166.66 7.368C169.758 9.08533 172.185 11.4933 173.94 14.592C175.732 17.6907 176.628 21.1813 176.628 25.064C176.628 28.9467 175.732 32.4373 173.94 35.536C172.148 38.6347 169.702 41.0613 166.604 42.816C163.542 44.5333 160.164 45.392 156.468 45.392C152.772 45.392 149.374 44.5333 146.276 42.816C143.177 41.0613 140.732 38.6347 138.94 35.536C137.148 32.4373 136.252 28.9467 136.252 25.064C136.252 21.1813 137.148 17.6907 138.94 14.592C140.732 11.4933 143.177 9.08533 146.276 7.368C149.374 5.61333 152.772 4.736 156.468 4.736ZM156.468 14.928C153.668 14.928 151.465 15.8427 149.86 17.672C148.254 19.464 147.452 21.928 147.452 25.064C147.452 28.1253 148.254 30.5707 149.86 32.4C151.465 34.2293 153.668 35.144 156.468 35.144C159.23 35.144 161.414 34.2293 163.02 32.4C164.625 30.5707 165.428 28.1253 165.428 25.064C165.428 21.928 164.625 19.464 163.02 17.672C161.452 15.8427 159.268 14.928 156.468 14.928ZM211.127 33.576C211.127 35.7787 210.567 37.776 209.447 39.568C208.327 41.36 206.684 42.7787 204.519 43.824C202.354 44.8693 199.759 45.392 196.735 45.392C192.143 45.392 188.354 44.2907 185.367 42.088C182.418 39.8853 180.812 36.7493 180.551 32.68H192.255C192.367 34.0613 192.796 35.088 193.543 35.76C194.29 36.432 195.204 36.768 196.287 36.768C197.258 36.768 198.004 36.5253 198.527 36.04C199.087 35.5547 199.367 34.864 199.367 33.968C199.367 32.7733 198.826 31.8587 197.743 31.224C196.66 30.552 194.943 29.824 192.591 29.04C190.09 28.1813 188.018 27.3413 186.375 26.52C184.77 25.6987 183.37 24.4667 182.175 22.824C181.018 21.1813 180.439 19.072 180.439 16.496C180.439 14.032 181.074 11.9227 182.343 10.168C183.612 8.376 185.348 7.032 187.551 6.136C189.754 5.20267 192.255 4.736 195.055 4.736C199.61 4.736 203.231 5.81866 205.919 7.984C208.644 10.112 210.138 13.1173 210.399 17H198.583C198.434 15.768 198.042 14.8533 197.407 14.256C196.81 13.6587 196.007 13.36 194.999 13.36C194.14 13.36 193.468 13.584 192.983 14.032C192.498 14.48 192.255 15.152 192.255 16.048C192.255 17.168 192.778 18.0453 193.823 18.68C194.906 19.3147 196.586 20.024 198.863 20.808C201.364 21.704 203.436 22.5813 205.079 23.44C206.722 24.2987 208.14 25.5493 209.335 27.192C210.53 28.8347 211.127 30.9627 211.127 33.576ZM226.99 14.144V20.696H239.814V29.04H226.99V36.208H241.494V45H215.958V5.352H241.494V14.144H226.99ZM302.952 5.52V45H292.032V22.6L284.696 45H275.232L267.896 22.6V45H256.864V5.52H270.36L280.104 31.168L289.568 5.52H302.952ZM328.132 4.736C331.865 4.736 335.262 5.61333 338.324 7.368C341.422 9.08533 343.849 11.4933 345.604 14.592C347.396 17.6907 348.292 21.1813 348.292 25.064C348.292 28.9467 347.396 32.4373 345.604 35.536C343.812 38.6347 341.366 41.0613 338.268 42.816C335.206 44.5333 331.828 45.392 328.132 45.392C324.436 45.392 321.038 44.5333 317.94 42.816C314.841 41.0613 312.396 38.6347 310.604 35.536C308.812 32.4373 307.916 28.9467 307.916 25.064C307.916 21.1813 308.812 17.6907 310.604 14.592C312.396 11.4933 314.841 9.08533 317.94 7.368C321.038 5.61333 324.436 4.736 328.132 4.736ZM328.132 14.928C325.332 14.928 323.129 15.8427 321.524 17.672C319.918 19.464 319.116 21.928 319.116 25.064C319.116 28.1253 319.918 30.5707 321.524 32.4C323.129 34.2293 325.332 35.144 328.132 35.144C330.894 35.144 333.078 34.2293 334.684 32.4C336.289 30.5707 337.092 28.1253 337.092 25.064C337.092 21.928 336.289 19.464 334.684 17.672C333.116 15.8427 330.932 14.928 328.132 14.928ZM389.623 25.064C389.623 28.9093 388.783 32.344 387.103 35.368C385.423 38.3547 383.034 40.7067 379.935 42.424C376.837 44.1413 373.197 45 369.015 45H353.223V5.352H369.015C373.197 5.352 376.837 6.192 379.935 7.872C383.071 9.51467 385.461 11.8293 387.103 14.816C388.783 17.8027 389.623 21.2187 389.623 25.064ZM368.007 35.144C371.255 35.144 373.813 34.2667 375.679 32.512C377.546 30.7573 378.479 28.2747 378.479 25.064C378.479 21.8907 377.546 19.4267 375.679 17.672C373.813 15.88 371.255 14.984 368.007 14.984H364.255V35.144H368.007ZM405.599 14.144V20.696H418.423V29.04H405.599V36.208H420.103V45H394.567V5.352H420.103V14.144H405.599ZM436.169 36.656H448.545V45H425.137V5.352H436.169V36.656Z"/>
</mask>
<path d="M27.6602 4.96C31.0576 4.96 34.0816 5.59466 36.7322 6.864C39.4202 8.096 41.6042 9.86933 43.2842 12.184C44.9642 14.4613 46.1029 17.112 46.7002 20.136H35.1082C34.4736 18.568 33.4842 17.3547 32.1402 16.496C30.7962 15.6 29.2469 15.152 27.4922 15.152C25.0656 15.152 23.1056 16.0667 21.6122 17.896C20.1189 19.688 19.3722 22.096 19.3722 25.12C19.3722 28.144 20.1189 30.5707 21.6122 32.4C23.1056 34.2293 25.0656 35.144 27.4922 35.144C29.2469 35.144 30.7962 34.696 32.1402 33.8C33.4842 32.904 34.4736 31.672 35.1082 30.104H46.7002C45.8042 34.7333 43.6762 38.4293 40.3162 41.192C36.9936 43.9173 32.7749 45.28 27.6602 45.28C23.7402 45.28 20.3056 44.44 17.3562 42.76C14.4442 41.0427 12.1856 38.6533 10.5802 35.592C9.01222 32.5307 8.22822 29.04 8.22822 25.12C8.22822 21.2 9.01222 17.7093 10.5802 14.648C12.1856 11.5867 14.4442 9.216 17.3562 7.536C20.3056 5.81866 23.7402 4.96 27.6602 4.96ZM87.0697 5.352V45H76.0937V28.984H62.6537V45H51.6217V5.352H62.6537V20.192H76.0937V5.352H87.0697ZM112.28 4.736C116.013 4.736 119.411 5.61333 122.472 7.368C125.571 9.08533 127.997 11.4933 129.752 14.592C131.544 17.6907 132.44 21.1813 132.44 25.064C132.44 28.9467 131.544 32.4373 129.752 35.536C127.96 38.6347 125.515 41.0613 122.416 42.816C119.355 44.5333 115.976 45.392 112.28 45.392C108.584 45.392 105.187 44.5333 102.088 42.816C98.9895 41.0613 96.5442 38.6347 94.7522 35.536C92.9602 32.4373 92.0642 28.9467 92.0642 25.064C92.0642 21.1813 92.9602 17.6907 94.7522 14.592C96.5442 11.4933 98.9895 9.08533 102.088 7.368C105.187 5.61333 108.584 4.736 112.28 4.736ZM112.28 14.928C109.48 14.928 107.277 15.8427 105.672 17.672C104.067 19.464 103.264 21.928 103.264 25.064C103.264 28.1253 104.067 30.5707 105.672 32.4C107.277 34.2293 109.48 35.144 112.28 35.144C115.043 35.144 117.227 34.2293 118.832 32.4C120.437 30.5707 121.24 28.1253 121.24 25.064C121.24 21.928 120.437 19.464 118.832 17.672C117.264 15.8427 115.08 14.928 112.28 14.928ZM156.468 4.736C160.201 4.736 163.598 5.61333 166.66 7.368C169.758 9.08533 172.185 11.4933 173.94 14.592C175.732 17.6907 176.628 21.1813 176.628 25.064C176.628 28.9467 175.732 32.4373 173.94 35.536C172.148 38.6347 169.702 41.0613 166.604 42.816C163.542 44.5333 160.164 45.392 156.468 45.392C152.772 45.392 149.374 44.5333 146.276 42.816C143.177 41.0613 140.732 38.6347 138.94 35.536C137.148 32.4373 136.252 28.9467 136.252 25.064C136.252 21.1813 137.148 17.6907 138.94 14.592C140.732 11.4933 143.177 9.08533 146.276 7.368C149.374 5.61333 152.772 4.736 156.468 4.736ZM156.468 14.928C153.668 14.928 151.465 15.8427 149.86 17.672C148.254 19.464 147.452 21.928 147.452 25.064C147.452 28.1253 148.254 30.5707 149.86 32.4C151.465 34.2293 153.668 35.144 156.468 35.144C159.23 35.144 161.414 34.2293 163.02 32.4C164.625 30.5707 165.428 28.1253 165.428 25.064C165.428 21.928 164.625 19.464 163.02 17.672C161.452 15.8427 159.268 14.928 156.468 14.928ZM211.127 33.576C211.127 35.7787 210.567 37.776 209.447 39.568C208.327 41.36 206.684 42.7787 204.519 43.824C202.354 44.8693 199.759 45.392 196.735 45.392C192.143 45.392 188.354 44.2907 185.367 42.088C182.418 39.8853 180.812 36.7493 180.551 32.68H192.255C192.367 34.0613 192.796 35.088 193.543 35.76C194.29 36.432 195.204 36.768 196.287 36.768C197.258 36.768 198.004 36.5253 198.527 36.04C199.087 35.5547 199.367 34.864 199.367 33.968C199.367 32.7733 198.826 31.8587 197.743 31.224C196.66 30.552 194.943 29.824 192.591 29.04C190.09 28.1813 188.018 27.3413 186.375 26.52C184.77 25.6987 183.37 24.4667 182.175 22.824C181.018 21.1813 180.439 19.072 180.439 16.496C180.439 14.032 181.074 11.9227 182.343 10.168C183.612 8.376 185.348 7.032 187.551 6.136C189.754 5.20267 192.255 4.736 195.055 4.736C199.61 4.736 203.231 5.81866 205.919 7.984C208.644 10.112 210.138 13.1173 210.399 17H198.583C198.434 15.768 198.042 14.8533 197.407 14.256C196.81 13.6587 196.007 13.36 194.999 13.36C194.14 13.36 193.468 13.584 192.983 14.032C192.498 14.48 192.255 15.152 192.255 16.048C192.255 17.168 192.778 18.0453 193.823 18.68C194.906 19.3147 196.586 20.024 198.863 20.808C201.364 21.704 203.436 22.5813 205.079 23.44C206.722 24.2987 208.14 25.5493 209.335 27.192C210.53 28.8347 211.127 30.9627 211.127 33.576ZM226.99 14.144V20.696H239.814V29.04H226.99V36.208H241.494V45H215.958V5.352H241.494V14.144H226.99ZM302.952 5.52V45H292.032V22.6L284.696 45H275.232L267.896 22.6V45H256.864V5.52H270.36L280.104 31.168L289.568 5.52H302.952ZM328.132 4.736C331.865 4.736 335.262 5.61333 338.324 7.368C341.422 9.08533 343.849 11.4933 345.604 14.592C347.396 17.6907 348.292 21.1813 348.292 25.064C348.292 28.9467 347.396 32.4373 345.604 35.536C343.812 38.6347 341.366 41.0613 338.268 42.816C335.206 44.5333 331.828 45.392 328.132 45.392C324.436 45.392 321.038 44.5333 317.94 42.816C314.841 41.0613 312.396 38.6347 310.604 35.536C308.812 32.4373 307.916 28.9467 307.916 25.064C307.916 21.1813 308.812 17.6907 310.604 14.592C312.396 11.4933 314.841 9.08533 317.94 7.368C321.038 5.61333 324.436 4.736 328.132 4.736ZM328.132 14.928C325.332 14.928 323.129 15.8427 321.524 17.672C319.918 19.464 319.116 21.928 319.116 25.064C319.116 28.1253 319.918 30.5707 321.524 32.4C323.129 34.2293 325.332 35.144 328.132 35.144C330.894 35.144 333.078 34.2293 334.684 32.4C336.289 30.5707 337.092 28.1253 337.092 25.064C337.092 21.928 336.289 19.464 334.684 17.672C333.116 15.8427 330.932 14.928 328.132 14.928ZM389.623 25.064C389.623 28.9093 388.783 32.344 387.103 35.368C385.423 38.3547 383.034 40.7067 379.935 42.424C376.837 44.1413 373.197 45 369.015 45H353.223V5.352H369.015C373.197 5.352 376.837 6.192 379.935 7.872C383.071 9.51467 385.461 11.8293 387.103 14.816C388.783 17.8027 389.623 21.2187 389.623 25.064ZM368.007 35.144C371.255 35.144 373.813 34.2667 375.679 32.512C377.546 30.7573 378.479 28.2747 378.479 25.064C378.479 21.8907 377.546 19.4267 375.679 17.672C373.813 15.88 371.255 14.984 368.007 14.984H364.255V35.144H368.007ZM405.599 14.144V20.696H418.423V29.04H405.599V36.208H420.103V45H394.567V5.352H420.103V14.144H405.599ZM436.169 36.656H448.545V45H425.137V5.352H436.169V36.656Z" fill="white"/>
<path d="M36.7322 6.864L35.8684 8.66784L35.8836 8.67511L35.8989 8.68213L36.7322 6.864ZM43.2842 12.184L41.6656 13.3588L41.6702 13.3651L41.6748 13.3713L43.2842 12.184ZM46.7002 20.136V22.136H49.1339L48.6623 19.7484L46.7002 20.136ZM35.1082 20.136L33.2543 20.8864L33.7601 22.136H35.1082V20.136ZM32.1402 16.496L31.0308 18.1601L31.047 18.1709L31.0634 18.1814L32.1402 16.496ZM21.6122 17.896L23.1487 19.1764L23.1551 19.1686L23.1615 19.1608L21.6122 17.896ZM21.6122 32.4L20.0629 33.6648L21.6122 32.4ZM32.1402 33.8L33.2496 35.4641H33.2496L32.1402 33.8ZM35.1082 30.104V28.104H33.7601L33.2543 29.3536L35.1082 30.104ZM46.7002 30.104L48.6638 30.484L49.1244 28.104H46.7002V30.104ZM40.3162 41.192L41.5846 42.7384L41.5864 42.7368L40.3162 41.192ZM17.3562 42.76L16.3402 44.4827L16.3532 44.4904L16.3663 44.4978L17.3562 42.76ZM10.5802 35.592L8.80013 36.5037L8.80451 36.5123L8.80898 36.5208L10.5802 35.592ZM10.5802 14.648L8.80898 13.7192L8.80451 13.7277L8.80013 13.7362L10.5802 14.648ZM17.3562 7.536L18.3557 9.26838L18.3626 9.26435L17.3562 7.536ZM27.6602 6.96C30.8051 6.96 33.5265 7.54633 35.8684 8.66784L37.596 5.06016C34.6367 3.643 31.31 2.96 27.6602 2.96V6.96ZM35.8989 8.68213C38.2852 9.77585 40.1947 11.3322 41.6656 13.3588L44.9028 11.0092C43.0137 8.40646 40.5552 6.41615 37.5655 5.04587L35.8989 8.68213ZM41.6748 13.3713C43.1645 15.3907 44.1928 17.7627 44.7381 20.5236L48.6623 19.7484C48.013 16.4613 46.7639 13.5319 44.8937 10.9967L41.6748 13.3713ZM46.7002 18.136H35.1082V22.136H46.7002V18.136ZM36.9621 19.3856C36.1817 17.4576 34.9326 15.9067 33.217 14.8106L31.0634 18.1814C32.0358 18.8026 32.7654 19.6784 33.2543 20.8864L36.9621 19.3856ZM33.2496 14.8319C31.5487 13.6979 29.6061 13.152 27.4922 13.152V17.152C28.8876 17.152 30.0438 17.5021 31.0308 18.1601L33.2496 14.8319ZM27.4922 13.152C24.4841 13.152 21.948 14.3219 20.0629 16.6312L23.1615 19.1608C24.2631 17.8114 25.647 17.152 27.4922 17.152V13.152ZM20.0758 16.6156C18.2036 18.8622 17.3722 21.769 17.3722 25.12H21.3722C21.3722 22.423 22.0341 20.5138 23.1487 19.1764L20.0758 16.6156ZM17.3722 25.12C17.3722 28.4733 18.2045 31.3882 20.0629 33.6648L23.1615 31.1352C22.0333 29.7531 21.3722 27.8147 21.3722 25.12H17.3722ZM20.0629 33.6648C21.948 35.9741 24.4841 37.144 27.4922 37.144V33.144C25.647 33.144 24.2631 32.4846 23.1615 31.1352L20.0629 33.6648ZM27.4922 37.144C29.6061 37.144 31.5487 36.5981 33.2496 35.4641L31.0308 32.1359C30.0438 32.7939 28.8876 33.144 27.4922 33.144V37.144ZM33.2496 35.4641C34.9443 34.3343 36.1842 32.7762 36.9621 30.8544L33.2543 29.3536C32.7629 30.5678 32.0242 31.4737 31.0308 32.1359L33.2496 35.4641ZM35.1082 32.104H46.7002V28.104H35.1082V32.104ZM44.7367 29.724C43.9212 33.9374 42.0152 37.2058 39.046 39.6471L41.5864 42.7368C45.3372 39.6529 47.6873 35.5293 48.6638 30.484L44.7367 29.724ZM39.0479 39.6456C36.1478 42.0243 32.4041 43.28 27.6602 43.28V47.28C33.1457 47.28 37.8393 45.8104 41.5846 42.7384L39.0479 39.6456ZM27.6602 43.28C24.033 43.28 20.9499 42.5053 18.3461 41.0222L16.3663 44.4978C19.6613 46.3747 23.4475 47.28 27.6602 47.28V43.28ZM18.3722 41.0373C15.7885 39.5135 13.788 37.4025 12.3515 34.6632L8.80898 36.5208C10.5831 39.9041 13.1 42.5718 16.3402 44.4827L18.3722 41.0373ZM12.3603 34.6802C10.9559 31.9383 10.2282 28.7675 10.2282 25.12H6.22822C6.22822 29.3125 7.06855 33.123 8.80013 36.5037L12.3603 34.6802ZM10.2282 25.12C10.2282 21.4725 10.9559 18.3017 12.3603 15.5597L8.80013 13.7362C7.06855 17.117 6.22822 20.9275 6.22822 25.12H10.2282ZM12.3515 15.5768C13.7861 12.841 15.7815 10.7535 18.3557 9.26837L16.3568 5.80363C13.107 7.67852 10.585 10.3323 8.80898 13.7192L12.3515 15.5768ZM18.3626 9.26435C20.9634 7.74997 24.0405 6.96 27.6602 6.96V2.96C23.44 2.96 19.6477 3.88736 16.3498 5.80765L18.3626 9.26435ZM87.0697 5.352H89.0697V3.352H87.0697V5.352ZM87.0697 45V47H89.0697V45H87.0697ZM76.0937 45H74.0937V47H76.0937V45ZM76.0937 28.984H78.0937V26.984H76.0937V28.984ZM62.6537 28.984V26.984H60.6537V28.984H62.6537ZM62.6537 45V47H64.6537V45H62.6537ZM51.6217 45H49.6217V47H51.6217V45ZM51.6217 5.352V3.352H49.6217V5.352H51.6217ZM62.6537 5.352H64.6537V3.352H62.6537V5.352ZM62.6537 20.192H60.6537V22.192H62.6537V20.192ZM76.0937 20.192V22.192H78.0937V20.192H76.0937ZM76.0937 5.352V3.352H74.0937V5.352H76.0937ZM85.0697 5.352V45H89.0697V5.352H85.0697ZM87.0697 43H76.0937V47H87.0697V43ZM78.0937 45V28.984H74.0937V45H78.0937ZM76.0937 26.984H62.6537V30.984H76.0937V26.984ZM60.6537 28.984V45H64.6537V28.984H60.6537ZM62.6537 43H51.6217V47H62.6537V43ZM53.6217 45V5.352H49.6217V45H53.6217ZM51.6217 7.352H62.6537V3.352H51.6217V7.352ZM60.6537 5.352V20.192H64.6537V5.352H60.6537ZM62.6537 22.192H76.0937V18.192H62.6537V22.192ZM78.0937 20.192V5.352H74.0937V20.192H78.0937ZM76.0937 7.352H87.0697V3.352H76.0937V7.352ZM122.472 7.368L121.478 9.10318L121.49 9.11033L121.503 9.11731L122.472 7.368ZM129.752 14.592L128.012 15.5775L128.016 15.5854L128.021 15.5932L129.752 14.592ZM129.752 35.536L128.021 34.5347L129.752 35.536ZM122.416 42.816L123.395 44.5603L123.402 44.5563L122.416 42.816ZM102.088 42.816L101.103 44.5563L101.111 44.5609L101.119 44.5653L102.088 42.816ZM94.7522 35.536L96.4835 34.5347L94.7522 35.536ZM94.7522 14.592L93.0208 13.5907L94.7522 14.592ZM102.088 7.368L103.058 9.11731L103.066 9.11286L103.074 9.10834L102.088 7.368ZM105.672 17.672L107.162 19.0065L107.169 18.9989L107.175 18.9912L105.672 17.672ZM105.672 32.4L104.169 33.7192V33.7192L105.672 32.4ZM118.832 32.4L120.335 33.7192V33.7192L118.832 32.4ZM118.832 17.672L117.314 18.9736L117.328 18.9902L117.342 19.0065L118.832 17.672ZM112.28 6.736C115.686 6.736 118.737 7.5322 121.478 9.10318L123.467 5.63281C120.085 3.69447 116.341 2.736 112.28 2.736V6.736ZM121.503 9.11731C124.277 10.655 126.438 12.7979 128.012 15.5775L131.493 13.6065C129.557 10.1888 126.865 7.51569 123.442 5.61869L121.503 9.11731ZM128.021 15.5932C129.622 18.3621 130.44 21.5022 130.44 25.064H134.44C134.44 20.8605 133.466 17.0193 131.483 13.5907L128.021 15.5932ZM130.44 25.064C130.44 28.6258 129.622 31.7659 128.021 34.5347L131.483 36.5373C133.466 33.1087 134.44 29.2675 134.44 25.064H130.44ZM128.021 34.5347C126.406 37.3267 124.218 39.4975 121.431 41.0757L123.402 44.5563C126.812 42.6252 129.514 39.9426 131.483 36.5373L128.021 34.5347ZM121.438 41.0717C118.691 42.6124 115.652 43.392 112.28 43.392V47.392C116.3 47.392 120.018 46.4543 123.395 44.5603L121.438 41.0717ZM112.28 43.392C108.908 43.392 105.847 42.6124 103.058 41.0667L101.119 44.5653C104.527 46.4543 108.26 47.392 112.28 47.392V43.392ZM103.074 41.0757C100.287 39.4975 98.0981 37.3267 96.4835 34.5347L93.0208 36.5373C94.9902 39.9426 97.6923 42.6252 101.103 44.5563L103.074 41.0757ZM96.4835 34.5347C94.8822 31.7659 94.0642 28.6258 94.0642 25.064H90.0642C90.0642 29.2675 91.0381 33.1087 93.0208 36.5373L96.4835 34.5347ZM94.0642 25.064C94.0642 21.5022 94.8822 18.3621 96.4835 15.5932L93.0208 13.5907C91.0381 17.0193 90.0642 20.8605 90.0642 25.064H94.0642ZM96.4835 15.5932C98.096 12.8049 100.279 10.657 103.058 9.11731L101.119 5.61869C97.6995 7.51365 94.9923 10.1817 93.0208 13.5907L96.4835 15.5932ZM103.074 9.10834C105.86 7.53048 108.916 6.736 112.28 6.736V2.736C108.252 2.736 104.514 3.69619 101.103 5.62765L103.074 9.10834ZM112.28 12.928C109 12.928 106.213 14.0235 104.169 16.3528L107.175 18.9912C108.342 17.6618 109.96 16.928 112.28 16.928V12.928ZM104.182 16.3375C102.159 18.5963 101.264 21.5886 101.264 25.064H105.264C105.264 22.2674 105.975 20.3317 107.162 19.0065L104.182 16.3375ZM101.264 25.064C101.264 28.4814 102.167 31.4382 104.169 33.7192L107.175 31.0808C105.966 29.7031 105.264 27.7693 105.264 25.064H101.264ZM104.169 33.7192C106.213 36.0485 109 37.144 112.28 37.144V33.144C109.96 33.144 108.342 32.4102 107.175 31.0808L104.169 33.7192ZM112.28 37.144C115.532 37.144 118.297 36.0423 120.335 33.7192L117.329 31.0808C116.157 32.4164 114.554 33.144 112.28 33.144V37.144ZM120.335 33.7192C122.337 31.4382 123.24 28.4814 123.24 25.064H119.24C119.24 27.7693 118.538 29.7031 117.329 31.0808L120.335 33.7192ZM123.24 25.064C123.24 21.5886 122.345 18.5963 120.322 16.3375L117.342 19.0065C118.53 20.3317 119.24 22.2674 119.24 25.064H123.24ZM120.351 16.3704C118.339 14.0239 115.559 12.928 112.28 12.928V16.928C114.601 16.928 116.189 17.6615 117.314 18.9736L120.351 16.3704ZM166.66 7.368L165.665 9.10318L165.678 9.11033L165.69 9.11731L166.66 7.368ZM173.94 14.592L172.199 15.5775L172.204 15.5854L172.208 15.5932L173.94 14.592ZM173.94 35.536L172.208 34.5347L173.94 35.536ZM166.604 42.816L167.582 44.5603L167.589 44.5563L166.604 42.816ZM146.276 42.816L145.29 44.5563L145.298 44.5609L145.306 44.5653L146.276 42.816ZM138.94 35.536L140.671 34.5347L138.94 35.536ZM138.94 14.592L137.208 13.5907L138.94 14.592ZM146.276 7.368L147.245 9.11731L147.253 9.11286L147.261 9.10834L146.276 7.368ZM149.86 17.672L151.349 19.0065L151.356 18.9989L151.363 18.9912L149.86 17.672ZM149.86 32.4L148.356 33.7192V33.7192L149.86 32.4ZM163.02 32.4L164.523 33.7192V33.7192L163.02 32.4ZM163.02 17.672L161.501 18.9736L161.515 18.9902L161.53 19.0065L163.02 17.672ZM156.468 6.736C159.873 6.736 162.924 7.5322 165.665 9.10318L167.654 5.63281C164.272 3.69447 160.529 2.736 156.468 2.736V6.736ZM165.69 9.11731C168.465 10.655 170.625 12.7979 172.199 15.5775L175.68 13.6065C173.745 10.1888 171.052 7.51569 167.629 5.61869L165.69 9.11731ZM172.208 15.5932C173.81 18.3621 174.628 21.5022 174.628 25.064H178.628C178.628 20.8605 177.654 17.0193 175.671 13.5907L172.208 15.5932ZM174.628 25.064C174.628 28.6258 173.81 31.7659 172.208 34.5347L175.671 36.5373C177.654 33.1087 178.628 29.2675 178.628 25.064H174.628ZM172.208 34.5347C170.594 37.3267 168.405 39.4975 165.618 41.0757L167.589 44.5563C171 42.6252 173.702 39.9426 175.671 36.5373L172.208 34.5347ZM165.625 41.0717C162.879 42.6124 159.84 43.392 156.468 43.392V47.392C160.488 47.392 164.206 46.4543 167.582 44.5603L165.625 41.0717ZM156.468 43.392C153.096 43.392 150.034 42.6124 147.245 41.0667L145.306 44.5653C148.715 46.4543 152.448 47.392 156.468 47.392V43.392ZM147.261 41.0757C144.474 39.4975 142.286 37.3267 140.671 34.5347L137.208 36.5373C139.178 39.9426 141.88 42.6252 145.29 44.5563L147.261 41.0757ZM140.671 34.5347C139.07 31.7659 138.252 28.6258 138.252 25.064H134.252C134.252 29.2675 135.226 33.1087 137.208 36.5373L140.671 34.5347ZM138.252 25.064C138.252 21.5022 139.07 18.3621 140.671 15.5932L137.208 13.5907C135.226 17.0193 134.252 20.8605 134.252 25.064H138.252ZM140.671 15.5932C142.284 12.8049 144.467 10.657 147.245 9.11731L145.306 5.61869C141.887 7.51365 139.18 10.1817 137.208 13.5907L140.671 15.5932ZM147.261 9.10834C150.048 7.53048 153.103 6.736 156.468 6.736V2.736C152.44 2.736 148.701 3.69619 145.29 5.62765L147.261 9.10834ZM156.468 12.928C153.188 12.928 150.4 14.0235 148.356 16.3528L151.363 18.9912C152.529 17.6618 154.147 16.928 156.468 16.928V12.928ZM148.37 16.3375C146.346 18.5963 145.452 21.5886 145.452 25.064H149.452C149.452 22.2674 150.162 20.3317 151.349 19.0065L148.37 16.3375ZM145.452 25.064C145.452 28.4814 146.355 31.4382 148.356 33.7192L151.363 31.0808C150.154 29.7031 149.452 27.7693 149.452 25.064H145.452ZM148.356 33.7192C150.4 36.0485 153.188 37.144 156.468 37.144V33.144C154.147 33.144 152.529 32.4102 151.363 31.0808L148.356 33.7192ZM156.468 37.144C159.72 37.144 162.484 36.0423 164.523 33.7192L161.516 31.0808C160.344 32.4164 158.741 33.144 156.468 33.144V37.144ZM164.523 33.7192C166.525 31.4382 167.428 28.4814 167.428 25.064H163.428C163.428 27.7693 162.725 29.7031 161.516 31.0808L164.523 33.7192ZM167.428 25.064C167.428 21.5886 166.533 18.5963 164.509 16.3375L161.53 19.0065C162.717 20.3317 163.428 22.2674 163.428 25.064H167.428ZM164.538 16.3704C162.527 14.0239 159.747 12.928 156.468 12.928V16.928C158.789 16.928 160.376 17.6615 161.501 18.9736L164.538 16.3704ZM209.447 39.568L211.143 40.628L209.447 39.568ZM204.519 43.824L203.65 42.0229L204.519 43.824ZM185.367 42.088L184.17 43.6905L184.18 43.6976L185.367 42.088ZM180.551 32.68V30.68H178.419L178.555 32.8082L180.551 32.68ZM192.255 32.68L194.249 32.5184L194.1 30.68H192.255V32.68ZM193.543 35.76L192.205 37.2466V37.2466L193.543 35.76ZM198.527 36.04L197.217 34.5286L197.191 34.5511L197.166 34.5744L198.527 36.04ZM197.743 31.224L196.688 32.9233L196.71 32.9366L196.732 32.9494L197.743 31.224ZM192.591 29.04L191.942 30.9316L191.95 30.9345L191.959 30.9374L192.591 29.04ZM186.375 26.52L185.464 28.3005L185.472 28.3047L185.481 28.3089L186.375 26.52ZM182.175 22.824L180.54 23.9759L180.549 23.9882L180.558 24.0003L182.175 22.824ZM182.343 10.168L183.964 11.3402L183.969 11.3322L183.975 11.324L182.343 10.168ZM187.551 6.136L188.305 7.98859L188.318 7.98314L188.331 7.9775L187.551 6.136ZM205.919 7.984L204.665 9.54151L204.676 9.55103L204.688 9.56038L205.919 7.984ZM210.399 17V19H212.538L212.395 16.8657L210.399 17ZM198.583 17L196.598 17.2407L196.811 19H198.583V17ZM197.407 14.256L195.993 15.6702L196.014 15.6916L196.036 15.7124L197.407 14.256ZM192.983 14.032L191.627 12.5624V12.5624L192.983 14.032ZM193.823 18.68L192.785 20.3896L192.798 20.3976L192.812 20.4054L193.823 18.68ZM198.863 20.808L199.538 18.9252L199.526 18.921L199.514 18.9169L198.863 20.808ZM205.079 23.44L206.006 21.6675L205.079 23.44ZM209.127 33.576C209.127 35.4205 208.664 37.0477 207.751 38.508L211.143 40.628C212.47 38.5043 213.127 36.1368 213.127 33.576H209.127ZM207.751 38.508C206.858 39.9375 205.523 41.1185 203.65 42.0229L205.389 45.6251C207.846 44.4389 209.797 42.7825 211.143 40.628L207.751 38.508ZM203.65 42.0229C201.816 42.9081 199.534 43.392 196.735 43.392V47.392C199.985 47.392 202.892 46.8306 205.389 45.6251L203.65 42.0229ZM196.735 43.392C192.467 43.392 189.122 42.3725 186.554 40.4784L184.18 43.6976C187.585 46.2089 191.819 47.392 196.735 47.392V43.392ZM186.564 40.4856C184.138 38.6739 182.775 36.1073 182.547 32.5518L178.555 32.8082C178.85 37.3913 180.697 41.0967 184.17 43.6904L186.564 40.4856ZM180.551 34.68H192.255V30.68H180.551V34.68ZM190.262 32.8416C190.399 34.5366 190.955 36.121 192.205 37.2466L194.881 34.2734C194.638 34.055 194.335 33.5861 194.249 32.5184L190.262 32.8416ZM192.205 37.2466C193.349 38.276 194.752 38.768 196.287 38.768V34.768C195.657 34.768 195.231 34.588 194.881 34.2734L192.205 37.2466ZM196.287 38.768C197.578 38.768 198.879 38.4423 199.888 37.5056L197.166 34.5744C197.13 34.6083 196.938 34.768 196.287 34.768V38.768ZM199.837 37.5514C200.926 36.6072 201.367 35.3115 201.367 33.968H197.367C197.367 34.4165 197.248 34.5022 197.217 34.5286L199.837 37.5514ZM201.367 33.968C201.367 32.0207 200.412 30.47 198.755 29.4986L196.732 32.9494C197.24 33.2473 197.367 33.526 197.367 33.968H201.367ZM198.798 29.5247C197.511 28.7257 195.612 27.9389 193.224 27.1426L191.959 30.9374C194.274 31.7091 195.81 32.3783 196.688 32.9233L198.798 29.5247ZM193.241 27.1484C190.79 26.3071 188.807 25.4998 187.27 24.7311L185.481 28.3089C187.229 29.1829 189.39 30.0555 191.942 30.9316L193.241 27.1484ZM187.286 24.7395C185.994 24.0785 184.826 23.0687 183.793 21.6477L180.558 24.0003C181.914 25.8647 183.546 27.3189 185.464 28.3005L187.286 24.7395ZM183.81 21.6721C182.949 20.4505 182.439 18.7758 182.439 16.496H178.439C178.439 19.3682 179.086 21.9121 180.54 23.9759L183.81 21.6721ZM182.439 16.496C182.439 14.3926 182.974 12.708 183.964 11.3402L180.723 8.99576C179.173 11.1373 178.439 13.6714 178.439 16.496H182.439ZM183.975 11.324C185.006 9.86902 186.425 8.7533 188.305 7.98859L186.798 4.28341C184.272 5.3107 182.219 6.88298 180.711 9.01196L183.975 11.324ZM188.331 7.9775C190.249 7.16503 192.478 6.736 195.055 6.736V2.736C192.032 2.736 189.259 3.2403 186.771 4.2945L188.331 7.9775ZM195.055 6.736C199.3 6.736 202.431 7.74268 204.665 9.54151L207.174 6.42649C204.031 3.89465 199.92 2.736 195.055 2.736V6.736ZM204.688 9.56038C206.906 11.2923 208.175 13.7401 208.404 17.1343L212.395 16.8657C212.1 12.4946 210.383 8.93171 207.15 6.40762L204.688 9.56038ZM210.399 15H198.583V19H210.399V15ZM200.569 16.7593C200.386 15.2562 199.873 13.8299 198.778 12.7996L196.036 15.7124C196.211 15.8768 196.481 16.2798 196.598 17.2407L200.569 16.7593ZM198.821 12.8418C197.778 11.7982 196.428 11.36 194.999 11.36V15.36C195.587 15.36 195.842 15.5191 195.993 15.6702L198.821 12.8418ZM194.999 11.36C193.793 11.36 192.582 11.6809 191.627 12.5624L194.34 15.5016C194.355 15.4871 194.488 15.36 194.999 15.36V11.36ZM191.627 12.5624C190.6 13.5097 190.255 14.8008 190.255 16.048H194.255C194.255 15.7752 194.293 15.6221 194.318 15.5513C194.34 15.4918 194.352 15.4906 194.34 15.5016L191.627 12.5624ZM190.255 16.048C190.255 17.9407 191.209 19.4324 192.785 20.3896L194.861 16.9704C194.347 16.6583 194.255 16.3952 194.255 16.048H190.255ZM192.812 20.4054C194.07 21.1429 195.901 21.9036 198.212 22.6991L199.514 18.9169C197.27 18.1444 195.742 17.4864 194.835 16.9546L192.812 20.4054ZM198.189 22.6908C200.637 23.5679 202.618 24.4102 204.153 25.2124L206.006 21.6675C204.255 20.7525 202.092 19.8401 199.538 18.9252L198.189 22.6908ZM204.153 25.2124C205.497 25.915 206.687 26.9507 207.718 28.3683L210.953 26.0157C209.594 24.148 207.947 22.6823 206.006 21.6675L204.153 25.2124ZM207.718 28.3683C208.601 29.5826 209.127 31.264 209.127 33.576H213.127C213.127 30.6613 212.459 28.0867 210.953 26.0157L207.718 28.3683ZM226.99 14.144V12.144H224.99V14.144H226.99ZM226.99 20.696H224.99V22.696H226.99V20.696ZM239.814 20.696H241.814V18.696H239.814V20.696ZM239.814 29.04V31.04H241.814V29.04H239.814ZM226.99 29.04V27.04H224.99V29.04H226.99ZM226.99 36.208H224.99V38.208H226.99V36.208ZM241.494 36.208H243.494V34.208H241.494V36.208ZM241.494 45V47H243.494V45H241.494ZM215.958 45H213.958V47H215.958V45ZM215.958 5.352V3.352H213.958V5.352H215.958ZM241.494 5.352H243.494V3.352H241.494V5.352ZM241.494 14.144V16.144H243.494V14.144H241.494ZM224.99 14.144V20.696H228.99V14.144H224.99ZM226.99 22.696H239.814V18.696H226.99V22.696ZM237.814 20.696V29.04H241.814V20.696H237.814ZM239.814 27.04H226.99V31.04H239.814V27.04ZM224.99 29.04V36.208H228.99V29.04H224.99ZM226.99 38.208H241.494V34.208H226.99V38.208ZM239.494 36.208V45H243.494V36.208H239.494ZM241.494 43H215.958V47H241.494V43ZM217.958 45V5.352H213.958V45H217.958ZM215.958 7.352H241.494V3.352H215.958V7.352ZM239.494 5.352V14.144H243.494V5.352H239.494ZM241.494 12.144H226.99V16.144H241.494V12.144ZM302.952 5.52H304.952V3.52H302.952V5.52ZM302.952 45V47H304.952V45H302.952ZM292.032 45H290.032V47H292.032V45ZM292.032 22.6H294.032L290.131 21.9775L292.032 22.6ZM284.696 45V47H286.145L286.596 45.6225L284.696 45ZM275.232 45L273.331 45.6225L273.782 47H275.232V45ZM267.896 22.6L269.797 21.9775L265.896 22.6H267.896ZM267.896 45V47H269.896V45H267.896ZM256.864 45H254.864V47H256.864V45ZM256.864 5.52V3.52H254.864V5.52H256.864ZM270.36 5.52L272.229 4.80971L271.74 3.52H270.36V5.52ZM280.104 31.168L278.234 31.8783L280.131 36.8713L281.98 31.8604L280.104 31.168ZM289.568 5.52V3.52H288.174L287.691 4.82764L289.568 5.52ZM300.952 5.52V45H304.952V5.52H300.952ZM302.952 43H292.032V47H302.952V43ZM294.032 45V22.6H290.032V45H294.032ZM290.131 21.9775L282.795 44.3775L286.596 45.6225L293.933 23.2225L290.131 21.9775ZM284.696 43H275.232V47H284.696V43ZM277.133 44.3775L269.797 21.9775L265.995 23.2225L273.331 45.6225L277.133 44.3775ZM265.896 22.6V45H269.896V22.6H265.896ZM267.896 43H256.864V47H267.896V43ZM258.864 45V5.52H254.864V45H258.864ZM256.864 7.52H270.36V3.52H256.864V7.52ZM268.49 6.23029L278.234 31.8783L281.973 30.4577L272.229 4.80971L268.49 6.23029ZM281.98 31.8604L291.444 6.21236L287.691 4.82764L278.228 30.4756L281.98 31.8604ZM289.568 7.52H302.952V3.52H289.568V7.52ZM338.324 7.368L337.329 9.10318L337.342 9.11033L337.354 9.11731L338.324 7.368ZM345.604 14.592L343.863 15.5775L343.868 15.5854L343.872 15.5932L345.604 14.592ZM345.604 35.536L343.872 34.5347L345.604 35.536ZM338.268 42.816L339.246 44.5603L339.253 44.5563L338.268 42.816ZM317.94 42.816L316.954 44.5563L316.962 44.5609L316.97 44.5653L317.94 42.816ZM310.604 35.536L312.335 34.5347L310.604 35.536ZM310.604 14.592L308.872 13.5907L310.604 14.592ZM317.94 7.368L318.909 9.11731L318.917 9.11286L318.925 9.10834L317.94 7.368ZM321.524 17.672L323.013 19.0065L323.02 18.9989L323.027 18.9912L321.524 17.672ZM321.524 32.4L320.02 33.7192V33.7192L321.524 32.4ZM334.684 32.4L336.187 33.7192V33.7192L334.684 32.4ZM334.684 17.672L333.165 18.9736L333.179 18.9902L333.194 19.0065L334.684 17.672ZM328.132 6.736C331.537 6.736 334.588 7.5322 337.329 9.10318L339.318 5.63281C335.936 3.69447 332.193 2.736 328.132 2.736V6.736ZM337.354 9.11731C340.129 10.655 342.289 12.7979 343.863 15.5775L347.344 13.6065C345.409 10.1888 342.716 7.51569 339.293 5.61869L337.354 9.11731ZM343.872 15.5932C345.474 18.3621 346.292 21.5022 346.292 25.064H350.292C350.292 20.8605 349.318 17.0193 347.335 13.5907L343.872 15.5932ZM346.292 25.064C346.292 28.6258 345.474 31.7659 343.872 34.5347L347.335 36.5373C349.318 33.1087 350.292 29.2675 350.292 25.064H346.292ZM343.872 34.5347C342.258 37.3267 340.069 39.4975 337.282 41.0757L339.253 44.5563C342.664 42.6252 345.366 39.9426 347.335 36.5373L343.872 34.5347ZM337.289 41.0717C334.543 42.6124 331.504 43.392 328.132 43.392V47.392C332.152 47.392 335.87 46.4543 339.246 44.5603L337.289 41.0717ZM328.132 43.392C324.76 43.392 321.698 42.6124 318.909 41.0667L316.97 44.5653C320.379 46.4543 324.112 47.392 328.132 47.392V43.392ZM318.925 41.0757C316.138 39.4975 313.95 37.3267 312.335 34.5347L308.872 36.5373C310.842 39.9426 313.544 42.6252 316.954 44.5563L318.925 41.0757ZM312.335 34.5347C310.734 31.7659 309.916 28.6258 309.916 25.064H305.916C305.916 29.2675 306.89 33.1087 308.872 36.5373L312.335 34.5347ZM309.916 25.064C309.916 21.5022 310.734 18.3621 312.335 15.5932L308.872 13.5907C306.89 17.0193 305.916 20.8605 305.916 25.064H309.916ZM312.335 15.5932C313.948 12.8049 316.131 10.657 318.909 9.11731L316.97 5.61869C313.551 7.51365 310.844 10.1817 308.872 13.5907L312.335 15.5932ZM318.925 9.10834C321.712 7.53048 324.767 6.736 328.132 6.736V2.736C324.104 2.736 320.365 3.69619 316.954 5.62765L318.925 9.10834ZM328.132 12.928C324.852 12.928 322.065 14.0235 320.02 16.3528L323.027 18.9912C324.194 17.6618 325.811 16.928 328.132 16.928V12.928ZM320.034 16.3375C318.011 18.5963 317.116 21.5886 317.116 25.064H321.116C321.116 22.2674 321.826 20.3317 323.013 19.0065L320.034 16.3375ZM317.116 25.064C317.116 28.4814 318.019 31.4382 320.02 33.7192L323.027 31.0808C321.818 29.7031 321.116 27.7693 321.116 25.064H317.116ZM320.02 33.7192C322.065 36.0485 324.852 37.144 328.132 37.144V33.144C325.811 33.144 324.194 32.4102 323.027 31.0808L320.02 33.7192ZM328.132 37.144C331.384 37.144 334.148 36.0423 336.187 33.7192L333.18 31.0808C332.008 32.4164 330.405 33.144 328.132 33.144V37.144ZM336.187 33.7192C338.189 31.4382 339.092 28.4814 339.092 25.064H335.092C335.092 27.7693 334.389 29.7031 333.18 31.0808L336.187 33.7192ZM339.092 25.064C339.092 21.5886 338.197 18.5963 336.173 16.3375L333.194 19.0065C334.381 20.3317 335.092 22.2674 335.092 25.064H339.092ZM336.202 16.3704C334.191 14.0239 331.411 12.928 328.132 12.928V16.928C330.453 16.928 332.041 17.6615 333.165 18.9736L336.202 16.3704ZM387.103 35.368L388.846 36.3485L388.852 36.3393L387.103 35.368ZM379.935 42.424L378.966 40.6747L379.935 42.424ZM353.223 45H351.223V47H353.223V45ZM353.223 5.352V3.352H351.223V5.352H353.223ZM379.935 7.872L378.982 9.63021L378.995 9.63703L379.007 9.64366L379.935 7.872ZM387.103 14.816L385.351 15.7798L385.355 15.7882L385.36 15.7965L387.103 14.816ZM375.679 32.512L377.049 33.9693L375.679 32.512ZM375.679 17.672L374.294 19.1148L374.302 19.1221L374.309 19.1293L375.679 17.672ZM364.255 14.984V12.984H362.255V14.984H364.255ZM364.255 35.144H362.255V37.144H364.255V35.144ZM387.623 25.064C387.623 28.6082 386.852 31.7019 385.355 34.3967L388.852 36.3393C390.714 32.9861 391.623 29.2105 391.623 25.064H387.623ZM385.36 34.3875C383.868 37.0399 381.752 39.1306 378.966 40.6747L380.905 44.1733C384.316 42.2827 386.978 39.6695 388.846 36.3485L385.36 34.3875ZM378.966 40.6747C376.213 42.2002 372.919 43 369.015 43V47C373.474 47 377.46 46.0824 380.905 44.1733L378.966 40.6747ZM369.015 43H353.223V47H369.015V43ZM355.223 45V5.352H351.223V45H355.223ZM353.223 7.352H369.015V3.352H353.223V7.352ZM369.015 7.352C372.926 7.352 376.226 8.13601 378.982 9.63021L380.888 6.11378C377.447 4.24798 373.467 3.352 369.015 3.352V7.352ZM379.007 9.64366C381.809 11.1114 383.905 13.1514 385.351 15.7798L388.856 13.8522C387.016 10.5073 384.333 7.91796 380.863 6.10033L379.007 9.64366ZM385.36 15.7965C386.852 18.4486 387.623 21.5194 387.623 25.064H391.623C391.623 20.9179 390.715 17.1567 388.846 13.8355L385.36 15.7965ZM368.007 37.144C371.622 37.144 374.72 36.159 377.049 33.9693L374.309 31.0547C372.906 32.3744 370.888 33.144 368.007 33.144V37.144ZM377.049 33.9693C379.415 31.7454 380.479 28.6776 380.479 25.064H376.479C376.479 27.8717 375.677 29.7692 374.309 31.0547L377.049 33.9693ZM380.479 25.064C380.479 21.4797 379.41 18.4342 377.049 16.2147L374.309 19.1293C375.682 20.4192 376.479 22.3016 376.479 25.064H380.479ZM377.064 16.2292C374.736 13.9943 371.633 12.984 368.007 12.984V16.984C370.877 16.984 372.889 17.7657 374.294 19.1148L377.064 16.2292ZM368.007 12.984H364.255V16.984H368.007V12.984ZM362.255 14.984V35.144H366.255V14.984H362.255ZM364.255 37.144H368.007V33.144H364.255V37.144ZM405.599 14.144V12.144H403.599V14.144H405.599ZM405.599 20.696H403.599V22.696H405.599V20.696ZM418.423 20.696H420.423V18.696H418.423V20.696ZM418.423 29.04V31.04H420.423V29.04H418.423ZM405.599 29.04V27.04H403.599V29.04H405.599ZM405.599 36.208H403.599V38.208H405.599V36.208ZM420.103 36.208H422.103V34.208H420.103V36.208ZM420.103 45V47H422.103V45H420.103ZM394.567 45H392.567V47H394.567V45ZM394.567 5.352V3.352H392.567V5.352H394.567ZM420.103 5.352H422.103V3.352H420.103V5.352ZM420.103 14.144V16.144H422.103V14.144H420.103ZM403.599 14.144V20.696H407.599V14.144H403.599ZM405.599 22.696H418.423V18.696H405.599V22.696ZM416.423 20.696V29.04H420.423V20.696H416.423ZM418.423 27.04H405.599V31.04H418.423V27.04ZM403.599 29.04V36.208H407.599V29.04H403.599ZM405.599 38.208H420.103V34.208H405.599V38.208ZM418.103 36.208V45H422.103V36.208H418.103ZM420.103 43H394.567V47H420.103V43ZM396.567 45V5.352H392.567V45H396.567ZM394.567 7.352H420.103V3.352H394.567V7.352ZM418.103 5.352V14.144H422.103V5.352H418.103ZM420.103 12.144H405.599V16.144H420.103V12.144ZM436.169 36.656H434.169V38.656H436.169V36.656ZM448.545 36.656H450.545V34.656H448.545V36.656ZM448.545 45V47H450.545V45H448.545ZM425.137 45H423.137V47H425.137V45ZM425.137 5.352V3.352H423.137V5.352H425.137ZM436.169 5.352H438.169V3.352H436.169V5.352ZM436.169 38.656H448.545V34.656H436.169V38.656ZM446.545 36.656V45H450.545V36.656H446.545ZM448.545 43H425.137V47H448.545V43ZM427.137 45V5.352H423.137V45H427.137ZM425.137 7.352H436.169V3.352H425.137V7.352ZM434.169 5.352V36.656H438.169V5.352H434.169Z" fill="url(#paint0_linear_4_18)" mask="url(#path-1-outside-1_4_18)"/>
</g>
<defs>
<filter id="filter0_d_4_18" x="0.228271" y="0.735992" width="456.317" height="56.656" filterUnits="userSpaceOnUse" color-interpolation-filters="sRGB">
<feFlood flood-opacity="0" result="BackgroundImageFix"/>
<feColorMatrix in="SourceAlpha" type="matrix" values="0 0 0 0 0 0 0 0 0 0 0 0 0 0 0 0 0 0 127 0" result="hardAlpha"/>
<feOffset dy="4"/>
<feGaussianBlur stdDeviation="4"/>
<feComposite in2="hardAlpha" operator="out"/>
<feColorMatrix type="matrix" values="0 0 0 0 0 0 0 0 0 0 0 0 0 0 0 0 0 0 0.5 0"/>
<feBlend mode="normal" in2="BackgroundImageFix" result="effect1_dropShadow_4_18"/>
<feBlend mode="normal" in="SourceGraphic" in2="effect1_dropShadow_4_18" result="shape"/>
</filter>
<linearGradient id="paint0_linear_4_18" x1="-23" y1="25.5" x2="479" y2="25.5" gradientUnits="userSpaceOnUse">
<stop stop-color="#21D7FF"/>
<stop offset="1" stop-color="#CD1FE2"/>
</linearGradient>
</defs>
</svg>
