<svg width="464" height="58" viewBox="0 0 464 58" fill="none" xmlns="http://www.w3.org/2000/svg">
<g filter="url(#filter0_d_4_5)">
<mask id="path-1-outside-1_4_5" maskUnits="userSpaceOnUse" x="6" y="2" width="452" height="46" fill="black">
<rect fill="white" x="6" y="2" width="452" height="46"/>
<path d="M19.6068 5.352V45H8.57478V5.352H19.6068ZM71.78 5.52V45H60.86V22.6L53.524 45H44.06L36.724 22.6V45H25.692V5.52H39.188L48.932 31.168L58.396 5.52H71.78ZM88.8958 31.728V45H77.8638V5.352H94.3278C99.1065 5.352 102.747 6.56533 105.248 8.992C107.787 11.3813 109.056 14.592 109.056 18.624C109.056 21.1253 108.496 23.3653 107.376 25.344C106.256 27.3227 104.576 28.8907 102.336 30.048C100.133 31.168 97.4638 31.728 94.3278 31.728H88.8958ZM93.0958 23.048C96.3065 23.048 97.9118 21.5733 97.9118 18.624C97.9118 15.712 96.3065 14.256 93.0958 14.256H88.8958V23.048H93.0958ZM132.452 4.736C136.185 4.736 139.583 5.61333 142.644 7.368C145.743 9.08533 148.169 11.4933 149.924 14.592C151.716 17.6907 152.612 21.1813 152.612 25.064C152.612 28.9467 151.716 32.4373 149.924 35.536C148.132 38.6347 145.687 41.0613 142.588 42.816C139.527 44.5333 136.148 45.392 132.452 45.392C128.756 45.392 125.359 44.5333 122.26 42.816C119.161 41.0613 116.716 38.6347 114.924 35.536C113.132 32.4373 112.236 28.9467 112.236 25.064C112.236 21.1813 113.132 17.6907 114.924 14.592C116.716 11.4933 119.161 9.08533 122.26 7.368C125.359 5.61333 128.756 4.736 132.452 4.736ZM132.452 14.928C129.652 14.928 127.449 15.8427 125.844 17.672C124.239 19.464 123.436 21.928 123.436 25.064C123.436 28.1253 124.239 30.5707 125.844 32.4C127.449 34.2293 129.652 35.144 132.452 35.144C135.215 35.144 137.399 34.2293 139.004 32.4C140.609 30.5707 141.412 28.1253 141.412 25.064C141.412 21.928 140.609 19.464 139.004 17.672C137.436 15.8427 135.252 14.928 132.452 14.928ZM177.704 45L169.696 30.384H168.576V45H157.544V5.352H174.96C178.133 5.352 180.821 5.912 183.024 7.032C185.264 8.11466 186.944 9.62666 188.064 11.568C189.184 13.5093 189.744 15.6933 189.744 18.12C189.744 20.8827 188.978 23.2907 187.448 25.344C185.917 27.36 183.714 28.7787 180.84 29.6L189.856 45H177.704ZM168.576 22.992H174.008C177.069 22.992 178.6 21.6107 178.6 18.848C178.6 17.5413 178.208 16.5147 177.424 15.768C176.677 15.0213 175.538 14.648 174.008 14.648H168.576V22.992ZM223.977 5.352V14.144H213.281V45H202.305V14.144H191.721V5.352H223.977ZM293.43 5.352L284.19 45H270.526L265.038 20.528L259.55 45H245.886L236.646 5.352H248.518L252.886 32.344L258.99 5.352H271.03L277.19 32.344L281.558 5.352H293.43ZM323.232 38.392H309.176L306.992 45H295.4L309.904 5.52H322.616L337.064 45H325.416L323.232 38.392ZM320.488 30.104L316.232 17.224L311.92 30.104H320.488ZM351.341 36.656H363.717V45H340.309V5.352H351.341V36.656ZM378.904 36.656H391.28V45H367.872V5.352H378.904V36.656ZM406.466 14.144V20.696H419.29V29.04H406.466V36.208H420.97V45H395.434V5.352H420.97V14.144H406.466ZM455.852 5.352V14.144H445.156V45H434.18V14.144H423.596V5.352H455.852Z"/>
</mask>
<path d="M19.6068 5.352V45H8.57478V5.352H19.6068ZM71.78 5.52V45H60.86V22.6L53.524 45H44.06L36.724 22.6V45H25.692V5.52H39.188L48.932 31.168L58.396 5.52H71.78ZM88.8958 31.728V45H77.8638V5.352H94.3278C99.1065 5.352 102.747 6.56533 105.248 8.992C107.787 11.3813 109.056 14.592 109.056 18.624C109.056 21.1253 108.496 23.3653 107.376 25.344C106.256 27.3227 104.576 28.8907 102.336 30.048C100.133 31.168 97.4638 31.728 94.3278 31.728H88.8958ZM93.0958 23.048C96.3065 23.048 97.9118 21.5733 97.9118 18.624C97.9118 15.712 96.3065 14.256 93.0958 14.256H88.8958V23.048H93.0958ZM132.452 4.736C136.185 4.736 139.583 5.61333 142.644 7.368C145.743 9.08533 148.169 11.4933 149.924 14.592C151.716 17.6907 152.612 21.1813 152.612 25.064C152.612 28.9467 151.716 32.4373 149.924 35.536C148.132 38.6347 145.687 41.0613 142.588 42.816C139.527 44.5333 136.148 45.392 132.452 45.392C128.756 45.392 125.359 44.5333 122.26 42.816C119.161 41.0613 116.716 38.6347 114.924 35.536C113.132 32.4373 112.236 28.9467 112.236 25.064C112.236 21.1813 113.132 17.6907 114.924 14.592C116.716 11.4933 119.161 9.08533 122.26 7.368C125.359 5.61333 128.756 4.736 132.452 4.736ZM132.452 14.928C129.652 14.928 127.449 15.8427 125.844 17.672C124.239 19.464 123.436 21.928 123.436 25.064C123.436 28.1253 124.239 30.5707 125.844 32.4C127.449 34.2293 129.652 35.144 132.452 35.144C135.215 35.144 137.399 34.2293 139.004 32.4C140.609 30.5707 141.412 28.1253 141.412 25.064C141.412 21.928 140.609 19.464 139.004 17.672C137.436 15.8427 135.252 14.928 132.452 14.928ZM177.704 45L169.696 30.384H168.576V45H157.544V5.352H174.96C178.133 5.352 180.821 5.912 183.024 7.032C185.264 8.11466 186.944 9.62666 188.064 11.568C189.184 13.5093 189.744 15.6933 189.744 18.12C189.744 20.8827 188.978 23.2907 187.448 25.344C185.917 27.36 183.714 28.7787 180.84 29.6L189.856 45H177.704ZM168.576 22.992H174.008C177.069 22.992 178.6 21.6107 178.6 18.848C178.6 17.5413 178.208 16.5147 177.424 15.768C176.677 15.0213 175.538 14.648 174.008 14.648H168.576V22.992ZM223.977 5.352V14.144H213.281V45H202.305V14.144H191.721V5.352H223.977ZM293.43 5.352L284.19 45H270.526L265.038 20.528L259.55 45H245.886L236.646 5.352H248.518L252.886 32.344L258.99 5.352H271.03L277.19 32.344L281.558 5.352H293.43ZM323.232 38.392H309.176L306.992 45H295.4L309.904 5.52H322.616L337.064 45H325.416L323.232 38.392ZM320.488 30.104L316.232 17.224L311.92 30.104H320.488ZM351.341 36.656H363.717V45H340.309V5.352H351.341V36.656ZM378.904 36.656H391.28V45H367.872V5.352H378.904V36.656ZM406.466 14.144V20.696H419.29V29.04H406.466V36.208H420.97V45H395.434V5.352H420.97V14.144H406.466ZM455.852 5.352V14.144H445.156V45H434.18V14.144H423.596V5.352H455.852Z" fill="white"/>
<path d="M19.6068 5.352H21.6068V3.352H19.6068V5.352ZM19.6068 45V47H21.6068V45H19.6068ZM8.57478 45H6.57478V47H8.57478V45ZM8.57478 5.352V3.352H6.57478V5.352H8.57478ZM17.6068 5.352V45H21.6068V5.352H17.6068ZM19.6068 43H8.57478V47H19.6068V43ZM10.5748 45V5.352H6.57478V45H10.5748ZM8.57478 7.352H19.6068V3.352H8.57478V7.352ZM71.78 5.52H73.78V3.52H71.78V5.52ZM71.78 45V47H73.78V45H71.78ZM60.86 45H58.86V47H60.86V45ZM60.86 22.6H62.86L58.9593 21.9775L60.86 22.6ZM53.524 45V47H54.9735L55.4246 45.6225L53.524 45ZM44.06 45L42.1593 45.6225L42.6104 47H44.06V45ZM36.724 22.6L38.6246 21.9775L34.724 22.6H36.724ZM36.724 45V47H38.724V45H36.724ZM25.692 45H23.692V47H25.692V45ZM25.692 5.52V3.52H23.692V5.52H25.692ZM39.188 5.52L41.0576 4.80971L40.5676 3.52H39.188V5.52ZM48.932 31.168L47.0623 31.8783L48.9593 36.8713L50.8083 31.8604L48.932 31.168ZM58.396 5.52V3.52H57.0021L56.5196 4.82764L58.396 5.52ZM69.78 5.52V45H73.78V5.52H69.78ZM71.78 43H60.86V47H71.78V43ZM62.86 45V22.6H58.86V45H62.86ZM58.9593 21.9775L51.6233 44.3775L55.4246 45.6225L62.7606 23.2225L58.9593 21.9775ZM53.524 43H44.06V47H53.524V43ZM45.9606 44.3775L38.6246 21.9775L34.8233 23.2225L42.1593 45.6225L45.9606 44.3775ZM34.724 22.6V45H38.724V22.6H34.724ZM36.724 43H25.692V47H36.724V43ZM27.692 45V5.52H23.692V45H27.692ZM25.692 7.52H39.188V3.52H25.692V7.52ZM37.3183 6.23029L47.0623 31.8783L50.8016 30.4577L41.0576 4.80971L37.3183 6.23029ZM50.8083 31.8604L60.2723 6.21236L56.5196 4.82764L47.0556 30.4756L50.8083 31.8604ZM58.396 7.52H71.78V3.52H58.396V7.52ZM88.8958 31.728V29.728H86.8958V31.728H88.8958ZM88.8958 45V47H90.8958V45H88.8958ZM77.8638 45H75.8638V47H77.8638V45ZM77.8638 5.352V3.352H75.8638V5.352H77.8638ZM105.248 8.992L103.855 10.4275L103.866 10.438L103.877 10.4484L105.248 8.992ZM107.376 25.344L109.116 26.3292L107.376 25.344ZM102.336 30.048L103.242 31.8308L103.254 31.8249L102.336 30.048ZM88.8958 14.256V12.256H86.8958V14.256H88.8958ZM88.8958 23.048H86.8958V25.048H88.8958V23.048ZM86.8958 31.728V45H90.8958V31.728H86.8958ZM88.8958 43H77.8638V47H88.8958V43ZM79.8638 45V5.352H75.8638V45H79.8638ZM77.8638 7.352H94.3278V3.352H77.8638V7.352ZM94.3278 7.352C98.7831 7.352 101.848 8.47982 103.855 10.4275L106.64 7.55652C103.645 4.65085 99.43 3.352 94.3278 3.352V7.352ZM103.877 10.4484C105.95 12.3996 107.056 15.0491 107.056 18.624H111.056C111.056 14.1349 109.623 10.363 106.619 7.5356L103.877 10.4484ZM107.056 18.624C107.056 20.8155 106.569 22.71 105.635 24.3588L109.116 26.3292C110.423 24.0206 111.056 21.4352 111.056 18.624H107.056ZM105.635 24.3588C104.727 25.963 103.352 27.272 101.418 28.2711L103.254 31.8249C105.8 30.5093 107.784 28.6823 109.116 26.3292L105.635 24.3588ZM101.429 28.2652C99.5728 29.2092 97.2313 29.728 94.3278 29.728V33.728C97.6964 33.728 100.694 33.1268 103.242 31.8308L101.429 28.2652ZM94.3278 29.728H88.8958V33.728H94.3278V29.728ZM93.0958 25.048C94.9694 25.048 96.7475 24.6213 98.0608 23.4149C99.4063 22.1789 99.9118 20.4527 99.9118 18.624H95.9118C95.9118 19.7447 95.6147 20.2304 95.3548 20.4691C95.0629 20.7373 94.433 21.048 93.0958 21.048V25.048ZM99.9118 18.624C99.9118 16.8066 99.4019 15.0914 98.0515 13.8666C96.7381 12.6754 94.9638 12.256 93.0958 12.256V16.256C94.4386 16.256 95.0723 16.5646 95.3642 16.8294C95.6191 17.0606 95.9118 17.5294 95.9118 18.624H99.9118ZM93.0958 12.256H88.8958V16.256H93.0958V12.256ZM86.8958 14.256V23.048H90.8958V14.256H86.8958ZM88.8958 25.048H93.0958V21.048H88.8958V25.048ZM142.644 7.368L141.649 9.10318L141.662 9.11033L141.675 9.11731L142.644 7.368ZM149.924 14.592L148.184 15.5775L148.188 15.5854L148.193 15.5932L149.924 14.592ZM149.924 35.536L148.193 34.5347L149.924 35.536ZM142.588 42.816L143.567 44.5603L143.574 44.5563L142.588 42.816ZM122.26 42.816L121.275 44.5563L121.283 44.5609L121.291 44.5653L122.26 42.816ZM114.924 35.536L116.655 34.5347L114.924 35.536ZM114.924 14.592L113.193 13.5907L114.924 14.592ZM122.26 7.368L123.23 9.11731L123.238 9.11286L123.246 9.10834L122.26 7.368ZM125.844 17.672L127.334 19.0065L127.341 18.9989L127.347 18.9912L125.844 17.672ZM125.844 32.4L124.341 33.7192V33.7192L125.844 32.4ZM139.004 32.4L140.507 33.7192V33.7192L139.004 32.4ZM139.004 17.672L137.486 18.9736L137.5 18.9902L137.514 19.0065L139.004 17.672ZM132.452 6.736C135.857 6.736 138.909 7.5322 141.649 9.10318L143.639 5.63281C140.257 3.69447 136.513 2.736 132.452 2.736V6.736ZM141.675 9.11731C144.449 10.655 146.61 12.7979 148.184 15.5775L151.664 13.6065C149.729 10.1888 147.036 7.51569 143.614 5.61869L141.675 9.11731ZM148.193 15.5932C149.794 18.3621 150.612 21.5022 150.612 25.064H154.612C154.612 20.8605 153.638 17.0193 151.655 13.5907L148.193 15.5932ZM150.612 25.064C150.612 28.6258 149.794 31.7659 148.193 34.5347L151.655 36.5373C153.638 33.1087 154.612 29.2675 154.612 25.064H150.612ZM148.193 34.5347C146.578 37.3267 144.39 39.4975 141.603 41.0757L143.574 44.5563C146.984 42.6252 149.686 39.9426 151.655 36.5373L148.193 34.5347ZM141.61 41.0717C138.863 42.6124 135.824 43.392 132.452 43.392V47.392C136.472 47.392 140.19 46.4543 143.567 44.5603L141.61 41.0717ZM132.452 43.392C129.08 43.392 126.018 42.6124 123.23 41.0667L121.291 44.5653C124.699 46.4543 128.432 47.392 132.452 47.392V43.392ZM123.246 41.0757C120.459 39.4975 118.27 37.3267 116.655 34.5347L113.193 36.5373C115.162 39.9426 117.864 42.6252 121.275 44.5563L123.246 41.0757ZM116.655 34.5347C115.054 31.7659 114.236 28.6258 114.236 25.064H110.236C110.236 29.2675 111.21 33.1087 113.193 36.5373L116.655 34.5347ZM114.236 25.064C114.236 21.5022 115.054 18.3621 116.655 15.5932L113.193 13.5907C111.21 17.0193 110.236 20.8605 110.236 25.064H114.236ZM116.655 15.5932C118.268 12.8049 120.451 10.657 123.23 9.11731L121.291 5.61869C117.871 7.51365 115.164 10.1817 113.193 13.5907L116.655 15.5932ZM123.246 9.10834C126.032 7.53048 129.088 6.736 132.452 6.736V2.736C128.424 2.736 124.685 3.69619 121.275 5.62765L123.246 9.10834ZM132.452 12.928C129.172 12.928 126.385 14.0235 124.341 16.3528L127.347 18.9912C128.514 17.6618 130.132 16.928 132.452 16.928V12.928ZM124.354 16.3375C122.331 18.5963 121.436 21.5886 121.436 25.064H125.436C125.436 22.2674 126.147 20.3317 127.334 19.0065L124.354 16.3375ZM121.436 25.064C121.436 28.4814 122.339 31.4382 124.341 33.7192L127.347 31.0808C126.138 29.7031 125.436 27.7693 125.436 25.064H121.436ZM124.341 33.7192C126.385 36.0485 129.172 37.144 132.452 37.144V33.144C130.132 33.144 128.514 32.4102 127.347 31.0808L124.341 33.7192ZM132.452 37.144C135.704 37.144 138.469 36.0423 140.507 33.7192L137.501 31.0808C136.329 32.4164 134.725 33.144 132.452 33.144V37.144ZM140.507 33.7192C142.509 31.4382 143.412 28.4814 143.412 25.064H139.412C139.412 27.7693 138.71 29.7031 137.501 31.0808L140.507 33.7192ZM143.412 25.064C143.412 21.5886 142.517 18.5963 140.494 16.3375L137.514 19.0065C138.702 20.3317 139.412 22.2674 139.412 25.064H143.412ZM140.523 16.3704C138.511 14.0239 135.731 12.928 132.452 12.928V16.928C134.773 16.928 136.361 17.6615 137.486 18.9736L140.523 16.3704ZM177.704 45L175.95 45.961L176.519 47H177.704V45ZM169.696 30.384L171.45 29.423L170.88 28.384H169.696V30.384ZM168.576 30.384V28.384H166.576V30.384H168.576ZM168.576 45V47H170.576V45H168.576ZM157.544 45H155.544V47H157.544V45ZM157.544 5.352V3.352H155.544V5.352H157.544ZM183.024 7.032L182.117 8.81477L182.135 8.82391L182.153 8.8327L183.024 7.032ZM188.064 11.568L189.796 10.5686L188.064 11.568ZM187.448 25.344L189.04 26.5534L189.046 26.5464L189.051 26.5393L187.448 25.344ZM180.84 29.6L180.29 27.677L177.811 28.3853L179.114 30.6105L180.84 29.6ZM189.856 45V47H193.344L191.581 43.9895L189.856 45ZM168.576 22.992H166.576V24.992H168.576V22.992ZM177.424 15.768L176.009 17.1822L176.027 17.1995L176.044 17.2163L177.424 15.768ZM168.576 14.648V12.648H166.576V14.648H168.576ZM179.458 44.039L171.45 29.423L167.942 31.345L175.95 45.961L179.458 44.039ZM169.696 28.384H168.576V32.384H169.696V28.384ZM166.576 30.384V45H170.576V30.384H166.576ZM168.576 43H157.544V47H168.576V43ZM159.544 45V5.352H155.544V45H159.544ZM157.544 7.352H174.96V3.352H157.544V7.352ZM174.96 7.352C177.905 7.352 180.264 7.8723 182.117 8.81477L183.93 5.24923C181.378 3.95169 178.361 3.352 174.96 3.352V7.352ZM182.153 8.8327C184.073 9.76078 185.433 11.0114 186.331 12.5674L189.796 10.5686C188.454 8.24193 186.454 6.46854 183.894 5.2313L182.153 8.8327ZM186.331 12.5674C187.261 14.1799 187.744 16.0142 187.744 18.12H191.744C191.744 15.3724 191.106 12.8387 189.796 10.5686L186.331 12.5674ZM187.744 18.12C187.744 20.4879 187.097 22.4684 185.844 24.1487L189.051 26.5393C190.86 24.1129 191.744 21.2775 191.744 18.12H187.744ZM185.855 24.1346C184.631 25.7468 182.827 26.9522 180.29 27.677L181.389 31.523C184.602 30.6051 187.203 28.9732 189.04 26.5534L185.855 24.1346ZM179.114 30.6105L188.13 46.0105L191.581 43.9895L182.565 28.5895L179.114 30.6105ZM189.856 43H177.704V47H189.856V43ZM168.576 24.992H174.008V20.992H168.576V24.992ZM174.008 24.992C175.799 24.992 177.515 24.5923 178.791 23.4408C180.107 22.254 180.6 20.5936 180.6 18.848H176.6C176.6 19.865 176.327 20.2766 176.112 20.4712C175.857 20.701 175.278 20.992 174.008 20.992V24.992ZM180.6 18.848C180.6 17.1159 180.064 15.5204 178.803 14.3197L176.044 17.2163C176.351 17.5089 176.6 17.9668 176.6 18.848H180.6ZM178.838 14.3538C177.575 13.0915 175.83 12.648 174.008 12.648V16.648C175.247 16.648 175.778 16.9511 176.009 17.1822L178.838 14.3538ZM174.008 12.648H168.576V16.648H174.008V12.648ZM166.576 14.648V22.992H170.576V14.648H166.576ZM223.977 5.352H225.977V3.352H223.977V5.352ZM223.977 14.144V16.144H225.977V14.144H223.977ZM213.281 14.144V12.144H211.281V14.144H213.281ZM213.281 45V47H215.281V45H213.281ZM202.305 45H200.305V47H202.305V45ZM202.305 14.144H204.305V12.144H202.305V14.144ZM191.721 14.144H189.721V16.144H191.721V14.144ZM191.721 5.352V3.352H189.721V5.352H191.721ZM221.977 5.352V14.144H225.977V5.352H221.977ZM223.977 12.144H213.281V16.144H223.977V12.144ZM211.281 14.144V45H215.281V14.144H211.281ZM213.281 43H202.305V47H213.281V43ZM204.305 45V14.144H200.305V45H204.305ZM202.305 12.144H191.721V16.144H202.305V12.144ZM193.721 14.144V5.352H189.721V14.144H193.721ZM191.721 7.352H223.977V3.352H191.721V7.352ZM293.43 5.352L295.378 5.80594L295.95 3.352H293.43V5.352ZM284.19 45V47H285.778L286.138 45.4539L284.19 45ZM270.526 45L268.575 45.4376L268.925 47H270.526V45ZM265.038 20.528L266.99 20.0904L263.087 20.0904L265.038 20.528ZM259.55 45V47H261.151L261.502 45.4376L259.55 45ZM245.886 45L243.938 45.4539L244.299 47H245.886V45ZM236.646 5.352V3.352H234.126L234.698 5.80594L236.646 5.352ZM248.518 5.352L250.492 5.03251L250.221 3.352H248.518V5.352ZM252.886 32.344L250.912 32.6635L254.837 32.7851L252.886 32.344ZM258.99 5.352V3.352H257.392L257.039 4.91086L258.99 5.352ZM271.03 5.352L272.98 4.90701L272.625 3.352H271.03V5.352ZM277.19 32.344L275.24 32.789L279.164 32.6635L277.19 32.344ZM281.558 5.352V3.352H279.856L279.584 5.03251L281.558 5.352ZM291.482 4.89806L282.242 44.5461L286.138 45.4539L295.378 5.80594L291.482 4.89806ZM284.19 43H270.526V47H284.19V43ZM272.478 44.5624L266.99 20.0904L263.087 20.9656L268.575 45.4376L272.478 44.5624ZM263.087 20.0904L257.599 44.5624L261.502 45.4376L266.99 20.9656L263.087 20.0904ZM259.55 43H245.886V47H259.55V43ZM247.834 44.5461L238.594 4.89806L234.698 5.80594L243.938 45.4539L247.834 44.5461ZM236.646 7.352H248.518V3.352H236.646V7.352ZM246.544 5.6715L250.912 32.6635L254.86 32.0245L250.492 5.03251L246.544 5.6715ZM254.837 32.7851L260.941 5.79314L257.039 4.91086L250.935 31.9029L254.837 32.7851ZM258.99 7.352H271.03V3.352H258.99V7.352ZM269.08 5.79699L275.24 32.789L279.14 31.899L272.98 4.90701L269.08 5.79699ZM279.164 32.6635L283.532 5.6715L279.584 5.03251L275.216 32.0245L279.164 32.6635ZM281.558 7.352H293.43V3.352H281.558V7.352ZM323.232 38.392L325.131 37.7644L324.677 36.392H323.232V38.392ZM309.176 38.392V36.392H307.73L307.277 37.7644L309.176 38.392ZM306.992 45V47H308.437L308.891 45.6276L306.992 45ZM295.4 45L293.522 44.3103L292.534 47H295.4V45ZM309.904 5.52V3.52H308.508L308.026 4.83031L309.904 5.52ZM322.616 5.52L324.494 4.83266L324.014 3.52H322.616V5.52ZM337.064 45V47H339.925L338.942 44.3127L337.064 45ZM325.416 45L323.517 45.6276L323.97 47H325.416V45ZM320.488 30.104V32.104H323.255L322.387 29.4765L320.488 30.104ZM316.232 17.224L318.131 16.5965L316.244 10.887L314.335 16.5891L316.232 17.224ZM311.92 30.104L310.023 29.4691L309.141 32.104H311.92V30.104ZM323.232 36.392H309.176V40.392H323.232V36.392ZM307.277 37.7644L305.093 44.3724L308.891 45.6276L311.075 39.0196L307.277 37.7644ZM306.992 43H295.4V47H306.992V43ZM297.277 45.6897L311.781 6.20968L308.026 4.83031L293.522 44.3103L297.277 45.6897ZM309.904 7.52H322.616V3.52H309.904V7.52ZM320.738 6.20733L335.186 45.6873L338.942 44.3127L324.494 4.83266L320.738 6.20733ZM337.064 43H325.416V47H337.064V43ZM327.315 44.3724L325.131 37.7644L321.333 39.0196L323.517 45.6276L327.315 44.3724ZM322.387 29.4765L318.131 16.5965L314.333 17.8515L318.589 30.7315L322.387 29.4765ZM314.335 16.5891L310.023 29.4691L313.816 30.7389L318.128 17.8589L314.335 16.5891ZM311.92 32.104H320.488V28.104H311.92V32.104ZM351.341 36.656H349.341V38.656H351.341V36.656ZM363.717 36.656H365.717V34.656H363.717V36.656ZM363.717 45V47H365.717V45H363.717ZM340.309 45H338.309V47H340.309V45ZM340.309 5.352V3.352H338.309V5.352H340.309ZM351.341 5.352H353.341V3.352H351.341V5.352ZM351.341 38.656H363.717V34.656H351.341V38.656ZM361.717 36.656V45H365.717V36.656H361.717ZM363.717 43H340.309V47H363.717V43ZM342.309 45V5.352H338.309V45H342.309ZM340.309 7.352H351.341V3.352H340.309V7.352ZM349.341 5.352V36.656H353.341V5.352H349.341ZM378.904 36.656H376.904V38.656H378.904V36.656ZM391.28 36.656H393.28V34.656H391.28V36.656ZM391.28 45V47H393.28V45H391.28ZM367.872 45H365.872V47H367.872V45ZM367.872 5.352V3.352H365.872V5.352H367.872ZM378.904 5.352H380.904V3.352H378.904V5.352ZM378.904 38.656H391.28V34.656H378.904V38.656ZM389.28 36.656V45H393.28V36.656H389.28ZM391.28 43H367.872V47H391.28V43ZM369.872 45V5.352H365.872V45H369.872ZM367.872 7.352H378.904V3.352H367.872V7.352ZM376.904 5.352V36.656H380.904V5.352H376.904ZM406.466 14.144V12.144H404.466V14.144H406.466ZM406.466 20.696H404.466V22.696H406.466V20.696ZM419.29 20.696H421.29V18.696H419.29V20.696ZM419.29 29.04V31.04H421.29V29.04H419.29ZM406.466 29.04V27.04H404.466V29.04H406.466ZM406.466 36.208H404.466V38.208H406.466V36.208ZM420.97 36.208H422.97V34.208H420.97V36.208ZM420.97 45V47H422.97V45H420.97ZM395.434 45H393.434V47H395.434V45ZM395.434 5.352V3.352H393.434V5.352H395.434ZM420.97 5.352H422.97V3.352H420.97V5.352ZM420.97 14.144V16.144H422.97V14.144H420.97ZM404.466 14.144V20.696H408.466V14.144H404.466ZM406.466 22.696H419.29V18.696H406.466V22.696ZM417.29 20.696V29.04H421.29V20.696H417.29ZM419.29 27.04H406.466V31.04H419.29V27.04ZM404.466 29.04V36.208H408.466V29.04H404.466ZM406.466 38.208H420.97V34.208H406.466V38.208ZM418.97 36.208V45H422.97V36.208H418.97ZM420.97 43H395.434V47H420.97V43ZM397.434 45V5.352H393.434V45H397.434ZM395.434 7.352H420.97V3.352H395.434V7.352ZM418.97 5.352V14.144H422.97V5.352H418.97ZM420.97 12.144H406.466V16.144H420.97V12.144ZM455.852 5.352H457.852V3.352H455.852V5.352ZM455.852 14.144V16.144H457.852V14.144H455.852ZM445.156 14.144V12.144H443.156V14.144H445.156ZM445.156 45V47H447.156V45H445.156ZM434.18 45H432.18V47H434.18V45ZM434.18 14.144H436.18V12.144H434.18V14.144ZM423.596 14.144H421.596V16.144H423.596V14.144ZM423.596 5.352V3.352H421.596V5.352H423.596ZM453.852 5.352V14.144H457.852V5.352H453.852ZM455.852 12.144H445.156V16.144H455.852V12.144ZM443.156 14.144V45H447.156V14.144H443.156ZM445.156 43H434.18V47H445.156V43ZM436.18 45V14.144H432.18V45H436.18ZM434.18 12.144H423.596V16.144H434.18V12.144ZM425.596 14.144V5.352H421.596V14.144H425.596ZM423.596 7.352H455.852V3.352H423.596V7.352Z" fill="url(#paint0_linear_4_5)" mask="url(#path-1-outside-1_4_5)"/>
</g>
<defs>
<filter id="filter0_d_4_5" x="0.574707" y="0.735992" width="463.278" height="56.656" filterUnits="userSpaceOnUse" color-interpolation-filters="sRGB">
<feFlood flood-opacity="0" result="BackgroundImageFix"/>
<feColorMatrix in="SourceAlpha" type="matrix" values="0 0 0 0 0 0 0 0 0 0 0 0 0 0 0 0 0 0 127 0" result="hardAlpha"/>
<feOffset dy="4"/>
<feGaussianBlur stdDeviation="4"/>
<feComposite in2="hardAlpha" operator="out"/>
<feColorMatrix type="matrix" values="0 0 0 0 0 0 0 0 0 0 0 0 0 0 0 0 0 0 0.5 0"/>
<feBlend mode="normal" in2="BackgroundImageFix" result="effect1_dropShadow_4_5"/>
<feBlend mode="normal" in="SourceGraphic" in2="effect1_dropShadow_4_5" result="shape"/>
</filter>
<linearGradient id="paint0_linear_4_5" x1="-20" y1="25.5" x2="482" y2="25.5" gradientUnits="userSpaceOnUse">
<stop stop-color="#21D7FF"/>
<stop offset="1" stop-color="#CD1FE2"/>
</linearGradient>
</defs>
</svg>
