<svg width="260" height="70" viewBox="0 0 260 70" fill="none" xmlns="http://www.w3.org/2000/svg">
<g clip-path="url(#clip0_3_7459)">
<path d="M78.4661 53.1908V3.29141H81.9383V49.8994H105.715V53.1908H78.4661ZM122.886 53.8816C117.502 53.8816 113.338 52.1478 110.218 48.8564C107.275 45.565 105.702 40.892 105.702 34.8239C105.702 28.9319 107.085 24.0828 110.042 20.6153C112.985 16.9717 116.81 15.238 121.842 15.238C126.182 15.238 129.655 16.7957 132.259 19.7485C134.863 22.8638 136.07 27.0221 136.07 32.2233V35H109.174C109.174 40.0252 110.394 44.0074 112.822 46.608C115.074 49.3847 118.546 50.5902 122.886 50.5902C124.962 50.5902 126.874 50.4141 128.434 50.0755C129.994 49.7233 132.082 49.2086 134.51 48.1656V51.457C132.435 52.3239 130.523 53.0147 128.787 53.3669C126.847 53.719 124.867 53.8951 122.886 53.8816ZM121.842 18.3669C118.193 18.3669 115.427 19.5859 113.161 21.8344C111.086 24.2589 109.689 27.5503 109.35 32.0608H132.259C132.259 27.7264 131.391 24.435 129.478 22.0104C127.742 19.5724 125.138 18.3669 121.842 18.3669ZM154.123 15.4141C156.727 15.4141 159.155 15.9288 161.068 16.7957C162.98 17.8386 164.716 19.3963 166.276 21.8208H166.452C166.276 18.8816 166.276 16.1049 166.276 13.3282V0H169.572V53.1908H167.32L166.452 47.4748C163.672 51.6331 159.508 53.8816 154.299 53.8816C149.091 53.8816 145.28 52.3239 142.499 49.0325C139.719 45.9172 138.512 41.2306 138.512 35.1761C138.512 28.7693 139.895 23.9067 142.499 20.4528C145.103 16.9853 149.091 15.4141 154.123 15.4141ZM154.123 18.3669C150.135 18.3669 147.016 19.7485 144.927 22.7012C142.852 25.4779 141.807 29.6362 141.807 35.1761C141.807 45.7411 145.971 50.9423 154.123 50.9423C158.287 50.9423 161.407 49.7233 163.319 47.2988C165.232 44.8742 166.262 40.892 166.262 35.1625V34.6478C166.262 28.9319 165.218 24.7736 163.319 22.3491C161.583 19.5724 158.463 18.3669 154.123 18.3669ZM205.651 16.1184V18.543L198.014 19.0577C200.09 21.6583 201.134 24.435 201.134 27.3742C201.134 31.0178 199.913 33.781 197.485 36.043C195.058 38.2914 191.938 39.3344 187.937 39.3344C186.201 39.3344 184.994 39.3344 184.465 39.1583C183.081 39.8491 182.037 40.7159 181.345 41.5828C180.653 42.6258 180.301 43.4926 180.301 44.6981C180.301 45.9036 180.816 46.7705 181.684 47.2988C182.552 47.8135 184.112 48.1656 186.201 48.1656H192.616C196.604 48.1656 199.723 49.0325 201.812 50.5902C203.901 52.1478 205.108 54.5724 205.108 57.8638C205.108 61.846 203.548 64.7988 200.429 66.8711C197.309 68.9435 192.793 69.9865 186.892 69.9865C182.213 69.9865 178.564 69.1196 175.96 67.2097C173.356 65.476 172.149 62.8754 172.149 59.7601C172.149 57.1594 173.017 55.0871 174.577 53.3533C176.137 51.6196 178.388 50.5766 180.992 49.8858C179.948 49.3711 178.917 48.6668 178.388 47.8135C177.71 46.9737 177.344 45.9443 177.344 44.8742C177.344 42.4497 178.904 40.2012 182.023 38.2914C179.948 37.4245 178.212 36.043 176.991 34.1331C175.77 32.2233 175.255 29.9748 175.255 27.5503C175.255 23.9067 176.476 20.7914 178.727 18.543C181.155 16.2945 184.275 15.2515 188.276 15.2515C190.704 15.2515 192.616 15.4276 194 15.9423H205.624V16.1184H205.651ZM175.458 59.435C175.458 64.4601 179.27 67.0608 186.906 67.0608C196.617 67.0608 201.487 63.9454 201.487 57.7012C201.487 55.4528 200.795 53.8951 199.235 52.8522C197.675 51.8092 195.248 51.2945 191.775 51.2945H185.699C178.931 51.457 175.458 54.0577 175.458 59.435ZM178.415 27.5503C178.415 30.4895 179.283 32.5755 181.019 34.3092C182.756 35.8669 185.007 36.7337 187.964 36.7337C191.084 36.7337 193.511 35.8669 195.071 34.3092C196.807 32.7515 197.499 30.5031 197.499 27.5503C197.499 24.435 196.631 22.0104 194.895 20.4528C193.159 18.8951 190.907 18.0282 187.788 18.0282C184.844 18.0282 182.403 18.8951 180.843 20.6289C179.107 22.173 178.415 24.5975 178.415 27.5503Z" fill="white"/>
<path d="M222.483 53.8816C217.098 53.8816 212.934 52.1478 209.815 48.8564C206.871 45.565 205.298 40.892 205.298 34.8239C205.298 28.9319 206.681 24.0828 209.638 20.6153C212.582 16.9717 216.406 15.238 221.438 15.238C225.779 15.238 229.251 16.7957 231.855 19.7484C234.459 22.8638 235.667 27.022 235.667 32.2233V35H208.946C208.946 40.0251 210.167 44.0073 212.595 46.608C214.847 49.3847 218.319 50.5901 222.659 50.5901C224.734 50.5901 226.647 50.4141 228.207 50.0754C229.766 49.7233 231.855 49.2086 234.283 48.1656V51.457C232.208 52.3239 230.295 53.0147 228.559 53.3669C226.647 53.719 224.734 53.8816 222.483 53.8816ZM221.615 18.3669C217.966 18.3669 215.199 19.5859 212.934 21.8343C210.859 24.2589 209.462 27.5503 209.123 32.0607H232.032C232.032 27.7264 231.163 24.435 229.251 22.0104C227.515 19.5724 224.911 18.3669 221.615 18.3669ZM254.927 15.4141C256.486 15.4141 258.223 15.5902 259.959 15.9288L259.267 19.2202C257.666 18.868 256.039 18.6919 254.411 18.7055C251.292 18.7055 248.687 20.0871 246.599 22.6877C244.523 25.4644 243.479 28.7558 243.479 32.9141V53.1908H240.007V16.1184H242.95L243.303 22.8773H243.479C245.039 20.1006 246.599 18.2043 248.335 17.1614C250.424 15.9423 252.499 15.4141 254.927 15.4141ZM45.3304 1.73373H20.5093V35H53.8211V10.3889C53.8347 5.71593 50.0098 1.73373 45.3304 1.73373ZM12.8866 1.73373H8.72261C4.04321 1.73373 0.0419922 5.53985 0.0419922 10.4025V14.5607H12.8866V1.73373ZM0.0419922 22.3491H12.8866V35.1761H0.0419922V22.3491ZM40.9901 55.6153H45.1541C49.8335 55.6153 53.8347 51.8092 53.8347 46.9466V42.8018H40.9901V55.6153ZM20.5093 42.8018H33.3539V55.6288H20.5093V42.8018ZM0.0419922 42.8018V46.9601C0.0419922 51.6331 3.85333 55.6288 8.72261 55.6288H12.8866V42.8018H0.0419922Z" fill="white"/>
</g>
<defs>
<clipPath id="clip0_3_7459">
<rect width="260" height="70" fill="white"/>
</clipPath>
</defs>
</svg>
