<svg width="24" height="24" viewBox="0 0 24 24" fill="none" xmlns="http://www.w3.org/2000/svg">
<rect width="24" height="24" rx="12" fill="#8347E6"/>
<path d="M15.8477 9.44141C15.5742 9.28516 15.2227 9.28516 14.9102 9.44141L12.7227 10.7305L11.2383 11.5508L9.08984 12.8398C8.81641 12.9961 8.46484 12.9961 8.15234 12.8398L6.47266 11.8242C6.19922 11.668 6.00391 11.3555 6.00391 11.0039V9.05078C6.00391 8.73828 6.16016 8.42578 6.47266 8.23047L8.15234 7.25391C8.42578 7.09766 8.77734 7.09766 9.08984 7.25391L10.7695 8.26953C11.043 8.42578 11.2383 8.73828 11.2383 9.08984V10.3789L12.7227 9.51953V8.19141C12.7227 7.87891 12.5664 7.56641 12.2539 7.37109L9.12891 5.53516C8.85547 5.37891 8.50391 5.37891 8.19141 5.53516L4.98828 7.41016C4.67578 7.56641 4.51953 7.87891 4.51953 8.19141V11.8633C4.51953 12.1758 4.67578 12.4883 4.98828 12.6836L8.15234 14.5195C8.42578 14.6758 8.77734 14.6758 9.08984 14.5195L11.2383 13.2695L12.7227 12.4102L14.8711 11.1602C15.1445 11.0039 15.4961 11.0039 15.8086 11.1602L17.4883 12.1367C17.7617 12.293 17.957 12.6055 17.957 12.957V14.9102C17.957 15.2227 17.8008 15.5352 17.4883 15.7305L15.8477 16.707C15.5742 16.8633 15.2227 16.8633 14.9102 16.707L13.2305 15.7305C12.957 15.5742 12.7617 15.2617 12.7617 14.9102V13.6602L11.2773 14.5195V15.8086C11.2773 16.1211 11.4336 16.4336 11.7461 16.6289L14.9102 18.4648C15.1836 18.6211 15.5352 18.6211 15.8477 18.4648L19.0117 16.6289C19.2852 16.4727 19.4805 16.1602 19.4805 15.8086V12.0977C19.4805 11.7852 19.3242 11.4727 19.0117 11.2773L15.8477 9.44141Z" fill="white"/>
</svg>
