<svg width="497" height="76" viewBox="0 0 497 76" fill="none" xmlns="http://www.w3.org/2000/svg">
<g filter="url(#filter0_d_4_4)">
<mask id="path-1-outside-1_4_4" maskUnits="userSpaceOnUse" x="6" y="2" width="485" height="64" fill="black">
<rect fill="white" x="6" y="2" width="485" height="64"/>
<path d="M31.472 5.19C37.54 5.19 42.8426 6.42 47.38 8.88C51.972 11.2853 55.498 14.6747 57.958 19.048C60.418 23.4213 61.648 28.4233 61.648 34.054C61.648 39.63 60.3906 44.6047 57.876 48.978C55.416 53.3513 51.89 56.7953 47.298 59.31C42.7606 61.77 37.4853 63 31.472 63H8.59395V5.19H31.472ZM30.242 48.814C34.9433 48.814 38.6333 47.5293 41.312 44.96C43.9906 42.3907 45.33 38.7553 45.33 34.054C45.33 29.298 43.9906 25.6353 41.312 23.066C38.6333 20.442 34.9433 19.13 30.242 19.13H24.666V48.814H30.242ZM96.6088 63.574C91.1968 63.574 86.2221 62.3167 81.6848 59.802C77.1474 57.2327 73.5394 53.7067 70.8608 49.224C68.2368 44.6867 66.9248 39.5753 66.9248 33.89C66.9248 28.2047 68.2368 23.1207 70.8608 18.638C73.5394 14.1007 77.1474 10.5747 81.6848 8.06C86.2221 5.54533 91.1968 4.288 96.6088 4.288C102.075 4.288 107.05 5.54533 111.533 8.06C116.07 10.5747 119.651 14.1007 122.275 18.638C124.899 23.1207 126.211 28.2047 126.211 33.89C126.211 39.5753 124.899 44.6867 122.275 49.224C119.651 53.7067 116.07 57.2327 111.533 59.802C106.995 62.3167 102.021 63.574 96.6088 63.574ZM96.6088 48.65C100.709 48.65 103.934 47.3107 106.285 44.632C108.69 41.9533 109.893 38.3727 109.893 33.89C109.893 29.298 108.69 25.69 106.285 23.066C103.934 20.3873 100.709 19.048 96.6088 19.048C92.4541 19.048 89.2014 20.3873 86.8508 23.066C84.5001 25.69 83.3248 29.298 83.3248 33.89C83.3248 38.4273 84.5001 42.0353 86.8508 44.714C89.2014 47.338 92.4541 48.65 96.6088 48.65ZM170.336 24.214C169.406 22.6833 168.122 21.508 166.482 20.688C164.896 19.868 163.01 19.458 160.824 19.458C156.778 19.458 153.58 20.77 151.23 23.394C148.934 26.018 147.786 29.544 147.786 33.972C147.786 38.9467 149.016 42.746 151.476 45.37C153.99 47.9393 157.626 49.224 162.382 49.224C168.012 49.224 172.03 46.682 174.436 41.598H158.282V30.036H188.294V45.616C187.036 48.6773 185.178 51.5473 182.718 54.226C180.312 56.9047 177.251 59.1187 173.534 60.868C169.816 62.5627 165.58 63.41 160.824 63.41C155.029 63.41 149.89 62.18 145.408 59.72C140.98 57.2053 137.536 53.734 135.076 49.306C132.67 44.8233 131.468 39.712 131.468 33.972C131.468 28.2867 132.67 23.23 135.076 18.802C137.536 14.3193 140.98 10.848 145.408 8.388C149.836 5.87333 154.947 4.616 160.742 4.616C168.012 4.616 174.026 6.36533 178.782 9.864C183.538 13.3627 186.49 18.146 187.638 24.214H170.336ZM211.568 18.064V27.494H230.018V39.712H211.568V50.126H232.478V63H195.496V5.19H232.478V18.064H211.568ZM296.672 5.19L276.746 63H256.164L236.156 5.19H253.376L266.496 46.928L279.534 5.19H296.672ZM317.752 18.064V27.494H336.202V39.712H317.752V50.126H338.662V63H301.68V5.19H338.662V18.064H317.752ZM375.878 63L364.398 41.68H362.676V63H346.604V5.19H371.942C376.588 5.19 380.524 6.01 383.75 7.65C386.975 9.23533 389.408 11.4493 391.048 14.292C392.688 17.08 393.508 20.2233 393.508 23.722C393.508 27.658 392.414 31.1293 390.228 34.136C388.096 37.088 384.952 39.1927 380.798 40.45L393.836 63H375.878ZM362.676 30.692H370.63C372.816 30.692 374.456 30.1727 375.55 29.134C376.643 28.0953 377.19 26.592 377.19 24.624C377.19 22.7653 376.616 21.3167 375.468 20.278C374.374 19.1847 372.762 18.638 370.63 18.638H362.676V30.692ZM422.629 63.574C415.905 63.574 410.383 61.9887 406.065 58.818C401.746 55.5927 399.423 51.0007 399.095 45.042H416.233C416.397 47.0647 416.998 48.5407 418.037 49.47C419.075 50.3993 420.415 50.864 422.055 50.864C423.531 50.864 424.733 50.5087 425.663 49.798C426.647 49.0327 427.139 47.994 427.139 46.682C427.139 44.9873 426.346 43.6753 424.761 42.746C423.175 41.8167 420.606 40.778 417.053 39.63C413.281 38.3727 410.219 37.17 407.869 36.022C405.573 34.8193 403.55 33.0973 401.801 30.856C400.106 28.56 399.259 25.5807 399.259 21.918C399.259 18.2007 400.188 15.03 402.047 12.406C403.905 9.72733 406.475 7.70466 409.755 6.338C413.035 4.97133 416.752 4.288 420.907 4.288C427.631 4.288 432.988 5.87333 436.979 9.044C441.024 12.16 443.183 16.5607 443.457 22.246H425.991C425.936 20.4967 425.389 19.1847 424.351 18.31C423.367 17.4353 422.082 16.998 420.497 16.998C419.294 16.998 418.31 17.3533 417.545 18.064C416.779 18.7747 416.397 19.786 416.397 21.098C416.397 22.1913 416.807 23.148 417.627 23.968C418.501 24.7333 419.567 25.4167 420.825 26.018C422.082 26.5647 423.941 27.2753 426.401 28.15C430.063 29.4073 433.07 30.6647 435.421 31.922C437.826 33.1247 439.876 34.8467 441.571 37.088C443.32 39.2747 444.195 42.0627 444.195 45.452C444.195 48.896 443.32 51.9847 441.571 54.718C439.876 57.4513 437.389 59.6107 434.109 61.196C430.883 62.7813 427.057 63.574 422.629 63.574ZM467.738 18.064V27.494H486.188V39.712H467.738V50.126H488.648V63H451.666V5.19H488.648V18.064H467.738Z"/>
</mask>
<path d="M31.472 5.19C37.54 5.19 42.8426 6.42 47.38 8.88C51.972 11.2853 55.498 14.6747 57.958 19.048C60.418 23.4213 61.648 28.4233 61.648 34.054C61.648 39.63 60.3906 44.6047 57.876 48.978C55.416 53.3513 51.89 56.7953 47.298 59.31C42.7606 61.77 37.4853 63 31.472 63H8.59395V5.19H31.472ZM30.242 48.814C34.9433 48.814 38.6333 47.5293 41.312 44.96C43.9906 42.3907 45.33 38.7553 45.33 34.054C45.33 29.298 43.9906 25.6353 41.312 23.066C38.6333 20.442 34.9433 19.13 30.242 19.13H24.666V48.814H30.242ZM96.6088 63.574C91.1968 63.574 86.2221 62.3167 81.6848 59.802C77.1474 57.2327 73.5394 53.7067 70.8608 49.224C68.2368 44.6867 66.9248 39.5753 66.9248 33.89C66.9248 28.2047 68.2368 23.1207 70.8608 18.638C73.5394 14.1007 77.1474 10.5747 81.6848 8.06C86.2221 5.54533 91.1968 4.288 96.6088 4.288C102.075 4.288 107.05 5.54533 111.533 8.06C116.07 10.5747 119.651 14.1007 122.275 18.638C124.899 23.1207 126.211 28.2047 126.211 33.89C126.211 39.5753 124.899 44.6867 122.275 49.224C119.651 53.7067 116.07 57.2327 111.533 59.802C106.995 62.3167 102.021 63.574 96.6088 63.574ZM96.6088 48.65C100.709 48.65 103.934 47.3107 106.285 44.632C108.69 41.9533 109.893 38.3727 109.893 33.89C109.893 29.298 108.69 25.69 106.285 23.066C103.934 20.3873 100.709 19.048 96.6088 19.048C92.4541 19.048 89.2014 20.3873 86.8508 23.066C84.5001 25.69 83.3248 29.298 83.3248 33.89C83.3248 38.4273 84.5001 42.0353 86.8508 44.714C89.2014 47.338 92.4541 48.65 96.6088 48.65ZM170.336 24.214C169.406 22.6833 168.122 21.508 166.482 20.688C164.896 19.868 163.01 19.458 160.824 19.458C156.778 19.458 153.58 20.77 151.23 23.394C148.934 26.018 147.786 29.544 147.786 33.972C147.786 38.9467 149.016 42.746 151.476 45.37C153.99 47.9393 157.626 49.224 162.382 49.224C168.012 49.224 172.03 46.682 174.436 41.598H158.282V30.036H188.294V45.616C187.036 48.6773 185.178 51.5473 182.718 54.226C180.312 56.9047 177.251 59.1187 173.534 60.868C169.816 62.5627 165.58 63.41 160.824 63.41C155.029 63.41 149.89 62.18 145.408 59.72C140.98 57.2053 137.536 53.734 135.076 49.306C132.67 44.8233 131.468 39.712 131.468 33.972C131.468 28.2867 132.67 23.23 135.076 18.802C137.536 14.3193 140.98 10.848 145.408 8.388C149.836 5.87333 154.947 4.616 160.742 4.616C168.012 4.616 174.026 6.36533 178.782 9.864C183.538 13.3627 186.49 18.146 187.638 24.214H170.336ZM211.568 18.064V27.494H230.018V39.712H211.568V50.126H232.478V63H195.496V5.19H232.478V18.064H211.568ZM296.672 5.19L276.746 63H256.164L236.156 5.19H253.376L266.496 46.928L279.534 5.19H296.672ZM317.752 18.064V27.494H336.202V39.712H317.752V50.126H338.662V63H301.68V5.19H338.662V18.064H317.752ZM375.878 63L364.398 41.68H362.676V63H346.604V5.19H371.942C376.588 5.19 380.524 6.01 383.75 7.65C386.975 9.23533 389.408 11.4493 391.048 14.292C392.688 17.08 393.508 20.2233 393.508 23.722C393.508 27.658 392.414 31.1293 390.228 34.136C388.096 37.088 384.952 39.1927 380.798 40.45L393.836 63H375.878ZM362.676 30.692H370.63C372.816 30.692 374.456 30.1727 375.55 29.134C376.643 28.0953 377.19 26.592 377.19 24.624C377.19 22.7653 376.616 21.3167 375.468 20.278C374.374 19.1847 372.762 18.638 370.63 18.638H362.676V30.692ZM422.629 63.574C415.905 63.574 410.383 61.9887 406.065 58.818C401.746 55.5927 399.423 51.0007 399.095 45.042H416.233C416.397 47.0647 416.998 48.5407 418.037 49.47C419.075 50.3993 420.415 50.864 422.055 50.864C423.531 50.864 424.733 50.5087 425.663 49.798C426.647 49.0327 427.139 47.994 427.139 46.682C427.139 44.9873 426.346 43.6753 424.761 42.746C423.175 41.8167 420.606 40.778 417.053 39.63C413.281 38.3727 410.219 37.17 407.869 36.022C405.573 34.8193 403.55 33.0973 401.801 30.856C400.106 28.56 399.259 25.5807 399.259 21.918C399.259 18.2007 400.188 15.03 402.047 12.406C403.905 9.72733 406.475 7.70466 409.755 6.338C413.035 4.97133 416.752 4.288 420.907 4.288C427.631 4.288 432.988 5.87333 436.979 9.044C441.024 12.16 443.183 16.5607 443.457 22.246H425.991C425.936 20.4967 425.389 19.1847 424.351 18.31C423.367 17.4353 422.082 16.998 420.497 16.998C419.294 16.998 418.31 17.3533 417.545 18.064C416.779 18.7747 416.397 19.786 416.397 21.098C416.397 22.1913 416.807 23.148 417.627 23.968C418.501 24.7333 419.567 25.4167 420.825 26.018C422.082 26.5647 423.941 27.2753 426.401 28.15C430.063 29.4073 433.07 30.6647 435.421 31.922C437.826 33.1247 439.876 34.8467 441.571 37.088C443.32 39.2747 444.195 42.0627 444.195 45.452C444.195 48.896 443.32 51.9847 441.571 54.718C439.876 57.4513 437.389 59.6107 434.109 61.196C430.883 62.7813 427.057 63.574 422.629 63.574ZM467.738 18.064V27.494H486.188V39.712H467.738V50.126H488.648V63H451.666V5.19H488.648V18.064H467.738Z" fill="white"/>
<path d="M47.38 8.88L46.4267 10.6382L46.4393 10.645L46.4519 10.6517L47.38 8.88ZM57.958 19.048L59.7011 18.0675L59.7011 18.0675L57.958 19.048ZM57.876 48.978L56.1421 47.9811L56.1374 47.9892L56.1328 47.9975L57.876 48.978ZM47.298 59.31L48.2512 61.0682L48.2586 61.0642L47.298 59.31ZM8.59395 63H6.59395V65H8.59395V63ZM8.59395 5.19V3.19H6.59395V5.19H8.59395ZM41.312 23.066L39.9124 24.4947L39.9199 24.5021L39.9275 24.5094L41.312 23.066ZM24.666 19.13V17.13H22.666V19.13H24.666ZM24.666 48.814H22.666V50.814H24.666V48.814ZM31.472 7.19C37.2656 7.19 42.2296 8.36265 46.4267 10.6382L48.3332 7.12178C43.4557 4.47734 37.8143 3.19 31.472 3.19V7.19ZM46.4519 10.6517C50.7135 12.8839 53.9509 16.0037 56.2148 20.0285L59.7011 18.0675C57.045 13.3456 53.2305 9.68678 48.308 7.10833L46.4519 10.6517ZM56.2148 20.0285C58.4866 24.0673 59.648 28.724 59.648 34.054H63.648C63.648 28.1226 62.3493 22.7754 59.7011 18.0675L56.2148 20.0285ZM59.648 34.054C59.648 39.3179 58.4645 43.9422 56.1421 47.9811L59.6098 49.9749C62.3167 45.2671 63.648 39.9421 63.648 34.054H59.648ZM56.1328 47.9975C53.8643 52.0303 50.6162 55.2126 46.3373 57.5558L48.2586 61.0642C53.1637 58.3781 56.9676 54.6724 59.6191 49.9585L56.1328 47.9975ZM46.3447 57.5518C42.145 59.8287 37.2076 61 31.472 61V65C37.763 65 43.3762 63.7113 48.2512 61.0682L46.3447 57.5518ZM31.472 61H8.59395V65H31.472V61ZM10.594 63V5.19H6.59395V63H10.594ZM8.59395 7.19H31.472V3.19H8.59395V7.19ZM30.242 50.814C35.3155 50.814 39.5531 49.4184 42.6964 46.4034L39.9275 43.5166C37.7135 45.6403 34.571 46.814 30.242 46.814V50.814ZM42.6964 46.4034C45.867 43.3622 47.33 39.1464 47.33 34.054H43.33C43.33 38.3642 42.1143 41.4191 39.9275 43.5166L42.6964 46.4034ZM47.33 34.054C47.33 28.9148 45.8714 24.6681 42.6964 21.6226L39.9275 24.5094C42.1098 26.6026 43.33 29.6812 43.33 34.054H47.33ZM42.7115 21.6373C39.5699 18.5598 35.3269 17.13 30.242 17.13V21.13C34.5597 21.13 37.6967 22.3242 39.9124 24.4947L42.7115 21.6373ZM30.242 17.13H24.666V21.13H30.242V17.13ZM22.666 19.13V48.814H26.666V19.13H22.666ZM24.666 50.814H30.242V46.814H24.666V50.814ZM81.6848 59.802L80.6993 61.5423L80.7073 61.5469L80.7153 61.5513L81.6848 59.802ZM70.8608 49.224L69.1295 50.2252L69.1366 50.2376L69.144 50.2499L70.8608 49.224ZM70.8608 18.638L69.1385 17.6212L69.1348 17.6276L70.8608 18.638ZM111.533 8.06L110.554 9.80431L110.563 9.80931L111.533 8.06ZM122.275 18.638L120.543 19.6393L120.549 19.6484L122.275 18.638ZM122.275 49.224L124.001 50.2344L124.006 50.2252L122.275 49.224ZM111.533 59.802L112.502 61.5513L112.51 61.5469L112.518 61.5423L111.533 59.802ZM106.285 44.632L104.797 43.2957L104.789 43.3042L104.782 43.3128L106.285 44.632ZM106.285 23.066L104.782 24.3852L104.796 24.4015L104.81 24.4174L106.285 23.066ZM86.8508 23.066L88.3405 24.4005L88.3473 24.3929L88.354 24.3852L86.8508 23.066ZM86.8508 44.714L85.3475 46.0332L85.3543 46.0409L85.3611 46.0485L86.8508 44.714ZM96.6088 61.574C91.5207 61.574 86.8819 60.3957 82.6543 58.0527L80.7153 61.5513C85.5623 64.2376 90.8728 65.574 96.6088 65.574V61.574ZM82.6703 58.0617C78.435 55.6634 75.0788 52.3837 72.5776 48.1981L69.144 50.2499C72.0001 55.0296 75.8599 58.802 80.6993 61.5423L82.6703 58.0617ZM72.5921 48.2227C70.1589 44.0153 68.9248 39.2545 68.9248 33.89H64.9248C64.9248 39.8962 66.3147 45.3581 69.1295 50.2252L72.5921 48.2227ZM68.9248 33.89C68.9248 28.5252 70.1589 23.796 72.5868 19.6484L69.1348 17.6276C66.3146 22.4453 64.9248 27.8841 64.9248 33.89H68.9248ZM72.583 19.6548C75.0835 15.4192 78.4338 12.1484 82.6543 9.80931L80.7153 6.31069C75.8611 9.00094 71.9954 12.7821 69.1385 17.6212L72.583 19.6548ZM82.6543 9.80931C86.8819 7.4663 91.5207 6.288 96.6088 6.288V2.288C90.8728 2.288 85.5623 3.62437 80.7153 6.31069L82.6543 9.80931ZM96.6088 6.288C101.755 6.288 106.39 7.46797 110.554 9.80428L112.511 6.31571C107.711 3.62269 102.396 2.288 96.6088 2.288V6.288ZM110.563 9.80931C114.78 12.1464 118.099 15.4123 120.543 19.6392L124.006 17.6367C121.203 12.7891 117.36 9.00298 112.502 6.31069L110.563 9.80931ZM120.549 19.6484C122.977 23.796 124.211 28.5252 124.211 33.89H128.211C128.211 27.8841 126.821 22.4453 124.001 17.6276L120.549 19.6484ZM124.211 33.89C124.211 39.2545 122.977 44.0153 120.543 48.2227L124.006 50.2252C126.821 45.3581 128.211 39.8962 128.211 33.89H124.211ZM120.549 48.2136C118.104 52.3907 114.779 55.6654 110.547 58.0617L112.518 61.5423C117.361 58.7999 121.198 55.0226 124.001 50.2344L120.549 48.2136ZM110.563 58.0527C106.336 60.3957 101.697 61.574 96.6088 61.574V65.574C102.345 65.574 107.655 64.2376 112.502 61.5513L110.563 58.0527ZM96.6088 50.65C101.189 50.65 104.999 49.1298 107.788 45.9512L104.782 43.3128C102.87 45.4915 100.229 46.65 96.6088 46.65V50.65ZM107.773 45.9683C110.583 42.8386 111.893 38.7401 111.893 33.89H107.893C107.893 38.0052 106.797 41.0681 104.797 43.2957L107.773 45.9683ZM111.893 33.89C111.893 28.9473 110.592 24.8046 107.759 21.7145L104.81 24.4174C106.789 26.5754 107.893 29.6487 107.893 33.89H111.893ZM107.788 21.7468C104.999 18.5682 101.189 17.048 96.6088 17.048V21.048C100.229 21.048 102.87 22.2065 104.782 24.3852L107.788 21.7468ZM96.6088 17.048C91.9837 17.048 88.1423 18.5621 85.3475 21.7468L88.354 24.3852C90.2606 22.2126 92.9245 21.048 96.6088 21.048V17.048ZM85.3611 21.7315C82.5923 24.8223 81.3248 28.9586 81.3248 33.89H85.3248C85.3248 29.6374 86.4079 26.5577 88.3405 24.4005L85.3611 21.7315ZM81.3248 33.89C81.3248 38.7762 82.5968 42.8986 85.3475 46.0332L88.354 43.3948C86.4034 41.172 85.3248 38.0784 85.3248 33.89H81.3248ZM85.3611 46.0485C88.1598 49.1726 91.9972 50.65 96.6088 50.65V46.65C92.911 46.65 90.2431 45.5034 88.3405 43.3795L85.3611 46.0485ZM170.336 24.214L168.626 25.252L169.21 26.214H170.336V24.214ZM166.482 20.688L165.563 22.4644L165.575 22.4707L165.587 22.4769L166.482 20.688ZM151.23 23.394L149.74 22.0595L149.732 22.0682L149.725 22.077L151.23 23.394ZM151.476 45.37L150.017 46.7379L150.031 46.7536L150.046 46.7689L151.476 45.37ZM174.436 41.598L176.244 42.4533L177.595 39.598H174.436V41.598ZM158.282 41.598H156.282V43.598H158.282V41.598ZM158.282 30.036V28.036H156.282V30.036H158.282ZM188.294 30.036H190.294V28.036H188.294V30.036ZM188.294 45.616L190.144 46.3758L190.294 46.0107V45.616H188.294ZM182.718 54.226L181.245 52.8732L181.237 52.8814L181.23 52.8897L182.718 54.226ZM173.534 60.868L174.363 62.6878L174.374 62.6828L174.385 62.6776L173.534 60.868ZM145.408 59.72L144.42 61.4591L144.433 61.4663L144.446 61.4733L145.408 59.72ZM135.076 49.306L133.313 50.2516L133.32 50.2645L133.327 50.2773L135.076 49.306ZM135.076 18.802L133.322 17.8398L133.318 17.8473L135.076 18.802ZM145.408 8.388L146.379 10.1363L146.387 10.1318L146.395 10.1271L145.408 8.388ZM178.782 9.864L177.597 11.475L177.597 11.475L178.782 9.864ZM187.638 24.214V26.214H190.052L189.603 23.8422L187.638 24.214ZM172.045 23.176C170.916 21.3152 169.345 19.8834 167.376 18.8991L165.587 22.4769C166.899 23.1326 167.897 24.0514 168.626 25.252L172.045 23.176ZM167.401 18.9116C165.474 17.9152 163.259 17.458 160.824 17.458V21.458C162.762 21.458 164.319 21.8208 165.563 22.4644L167.401 18.9116ZM160.824 17.458C156.303 17.458 152.528 18.9473 149.74 22.0595L152.719 24.7285C154.633 22.5927 157.254 21.458 160.824 21.458V17.458ZM149.725 22.077C147.031 25.1556 145.786 29.1943 145.786 33.972H149.786C149.786 29.8937 150.837 26.8804 152.735 24.711L149.725 22.077ZM145.786 33.972C145.786 39.2583 147.095 43.6211 150.017 46.7379L152.935 44.0021C150.937 41.8709 149.786 38.6351 149.786 33.972H145.786ZM150.046 46.7689C153.047 49.8349 157.268 51.224 162.382 51.224V47.224C157.983 47.224 154.934 46.0437 152.905 43.9711L150.046 46.7689ZM162.382 51.224C165.505 51.224 168.304 50.5158 170.688 49.0077C173.072 47.4994 174.909 45.2744 176.244 42.4533L172.628 40.7427C171.557 43.0056 170.183 44.5936 168.549 45.6273C166.915 46.6612 164.889 47.224 162.382 47.224V51.224ZM174.436 39.598H158.282V43.598H174.436V39.598ZM160.282 41.598V30.036H156.282V41.598H160.282ZM158.282 32.036H188.294V28.036H158.282V32.036ZM186.294 30.036V45.616H190.294V30.036H186.294ZM186.444 44.8562C185.285 47.6786 183.561 50.3512 181.245 52.8732L184.191 55.5788C186.795 52.7435 188.788 49.6761 190.144 46.3758L186.444 44.8562ZM181.23 52.8897C179.026 55.3436 176.192 57.4068 172.682 59.0584L174.385 62.6776C178.31 60.8306 181.599 58.4657 184.206 55.5622L181.23 52.8897ZM172.704 59.0482C169.287 60.6062 165.34 61.41 160.824 61.41V65.41C165.819 65.41 170.346 64.5192 174.363 62.6878L172.704 59.0482ZM160.824 61.41C155.32 61.41 150.52 60.2443 146.37 57.9667L144.446 61.4733C149.261 64.1157 154.738 65.41 160.824 65.41V61.41ZM146.395 57.9809C142.285 55.6465 139.105 52.44 136.824 48.3347L133.327 50.2773C135.967 55.028 139.675 58.7642 144.42 61.4591L146.395 57.9809ZM136.838 48.3604C134.608 44.2041 133.468 39.4249 133.468 33.972H129.468C129.468 39.9991 130.733 45.4426 133.313 50.2516L136.838 48.3604ZM133.468 33.972C133.468 28.5767 134.607 23.8557 136.833 19.7567L133.318 17.8473C130.734 22.6043 129.468 27.9966 129.468 33.972H133.468ZM136.829 19.7642C139.11 15.6087 142.284 12.4114 146.379 10.1363L144.436 6.63968C139.676 9.2846 135.962 13.0299 133.322 17.8398L136.829 19.7642ZM146.395 10.1271C150.483 7.8059 155.245 6.616 160.742 6.616V2.616C154.649 2.616 149.189 3.94076 144.42 6.64888L146.395 10.1271ZM160.742 6.616C167.686 6.616 173.257 8.28269 177.597 11.475L179.967 8.25296C174.794 4.44797 168.338 2.616 160.742 2.616V6.616ZM177.597 11.475C181.925 14.6592 184.614 18.9895 185.673 24.5858L189.603 23.8422C188.366 17.3025 185.15 12.0661 179.967 8.25296L177.597 11.475ZM187.638 22.214H170.336V26.214H187.638V22.214ZM211.568 18.064V16.064H209.568V18.064H211.568ZM211.568 27.494H209.568V29.494H211.568V27.494ZM230.018 27.494H232.018V25.494H230.018V27.494ZM230.018 39.712V41.712H232.018V39.712H230.018ZM211.568 39.712V37.712H209.568V39.712H211.568ZM211.568 50.126H209.568V52.126H211.568V50.126ZM232.478 50.126H234.478V48.126H232.478V50.126ZM232.478 63V65H234.478V63H232.478ZM195.496 63H193.496V65H195.496V63ZM195.496 5.19V3.19H193.496V5.19H195.496ZM232.478 5.19H234.478V3.19H232.478V5.19ZM232.478 18.064V20.064H234.478V18.064H232.478ZM209.568 18.064V27.494H213.568V18.064H209.568ZM211.568 29.494H230.018V25.494H211.568V29.494ZM228.018 27.494V39.712H232.018V27.494H228.018ZM230.018 37.712H211.568V41.712H230.018V37.712ZM209.568 39.712V50.126H213.568V39.712H209.568ZM211.568 52.126H232.478V48.126H211.568V52.126ZM230.478 50.126V63H234.478V50.126H230.478ZM232.478 61H195.496V65H232.478V61ZM197.496 63V5.19H193.496V63H197.496ZM195.496 7.19H232.478V3.19H195.496V7.19ZM230.478 5.19V18.064H234.478V5.19H230.478ZM232.478 16.064H211.568V20.064H232.478V16.064ZM296.672 5.19L298.563 5.84173L299.477 3.19H296.672V5.19ZM276.746 63V65H278.172L278.637 63.6517L276.746 63ZM256.164 63L254.274 63.6541L254.74 65H256.164V63ZM236.156 5.19V3.19H233.348L234.266 5.84413L236.156 5.19ZM253.376 5.19L255.284 4.59025L254.844 3.19H253.376V5.19ZM266.496 46.928L264.588 47.5277L266.502 53.6165L268.405 47.5243L266.496 46.928ZM279.534 5.19V3.19H278.064L277.625 4.59366L279.534 5.19ZM294.781 4.53826L274.855 62.3483L278.637 63.6517L298.563 5.84173L294.781 4.53826ZM276.746 61H256.164V65H276.746V61ZM258.054 62.3459L238.046 4.53587L234.266 5.84413L254.274 63.6541L258.054 62.3459ZM236.156 7.19H253.376V3.19H236.156V7.19ZM251.468 5.78975L264.588 47.5277L268.404 46.3282L255.284 4.59025L251.468 5.78975ZM268.405 47.5243L281.443 5.78633L277.625 4.59366L264.587 46.3317L268.405 47.5243ZM279.534 7.19H296.672V3.19H279.534V7.19ZM317.752 18.064V16.064H315.752V18.064H317.752ZM317.752 27.494H315.752V29.494H317.752V27.494ZM336.202 27.494H338.202V25.494H336.202V27.494ZM336.202 39.712V41.712H338.202V39.712H336.202ZM317.752 39.712V37.712H315.752V39.712H317.752ZM317.752 50.126H315.752V52.126H317.752V50.126ZM338.662 50.126H340.662V48.126H338.662V50.126ZM338.662 63V65H340.662V63H338.662ZM301.68 63H299.68V65H301.68V63ZM301.68 5.19V3.19H299.68V5.19H301.68ZM338.662 5.19H340.662V3.19H338.662V5.19ZM338.662 18.064V20.064H340.662V18.064H338.662ZM315.752 18.064V27.494H319.752V18.064H315.752ZM317.752 29.494H336.202V25.494H317.752V29.494ZM334.202 27.494V39.712H338.202V27.494H334.202ZM336.202 37.712H317.752V41.712H336.202V37.712ZM315.752 39.712V50.126H319.752V39.712H315.752ZM317.752 52.126H338.662V48.126H317.752V52.126ZM336.662 50.126V63H340.662V50.126H336.662ZM338.662 61H301.68V65H338.662V61ZM303.68 63V5.19H299.68V63H303.68ZM301.68 7.19H338.662V3.19H301.68V7.19ZM336.662 5.19V18.064H340.662V5.19H336.662ZM338.662 16.064H317.752V20.064H338.662V16.064ZM375.878 63L374.117 63.9482L374.683 65H375.878V63ZM364.398 41.68L366.159 40.7318L365.592 39.68H364.398V41.68ZM362.676 41.68V39.68H360.676V41.68H362.676ZM362.676 63V65H364.676V63H362.676ZM346.604 63H344.604V65H346.604V63ZM346.604 5.19V3.19H344.604V5.19H346.604ZM383.75 7.65L382.843 9.43277L382.855 9.43891L382.867 9.4449L383.75 7.65ZM391.048 14.292L389.315 15.2914L389.32 15.2988L389.324 15.306L391.048 14.292ZM390.228 34.136L388.61 32.9596L388.606 32.965L390.228 34.136ZM380.798 40.45L380.218 38.5357L377.803 39.2666L379.066 41.4511L380.798 40.45ZM393.836 63V65H397.302L395.567 61.9989L393.836 63ZM362.676 30.692H360.676V32.692H362.676V30.692ZM375.55 29.134L374.172 27.684L374.172 27.684L375.55 29.134ZM375.468 20.278L374.054 21.6922L374.089 21.7275L374.126 21.7611L375.468 20.278ZM362.676 18.638V16.638H360.676V18.638H362.676ZM377.639 62.0518L366.159 40.7318L362.637 42.6282L374.117 63.9482L377.639 62.0518ZM364.398 39.68H362.676V43.68H364.398V39.68ZM360.676 41.68V63H364.676V41.68H360.676ZM362.676 61H346.604V65H362.676V61ZM348.604 63V5.19H344.604V63H348.604ZM346.604 7.19H371.942V3.19H346.604V7.19ZM371.942 7.19C376.36 7.19 379.967 7.9703 382.843 9.43277L384.656 5.86723C381.082 4.04969 376.817 3.19 371.942 3.19V7.19ZM382.867 9.4449C385.772 10.8726 387.892 12.8249 389.315 15.2914L392.78 13.2926C390.923 10.0737 388.178 7.59805 384.632 5.8551L382.867 9.4449ZM389.324 15.306C390.768 17.7617 391.508 20.5498 391.508 23.722H395.508C395.508 19.8968 394.607 16.3983 392.772 13.278L389.324 15.306ZM391.508 23.722C391.508 27.2617 390.533 30.3156 388.61 32.9597L391.845 35.3123C394.296 31.9431 395.508 28.0543 395.508 23.722H391.508ZM388.606 32.965C386.778 35.4973 384.037 37.3802 380.218 38.5357L381.377 42.3643C385.868 41.0052 389.414 38.6787 391.849 35.307L388.606 32.965ZM379.066 41.4511L392.104 64.0011L395.567 61.9989L382.529 39.4489L379.066 41.4511ZM393.836 61H375.878V65H393.836V61ZM362.676 32.692H370.63V28.692H362.676V32.692ZM370.63 32.692C373.1 32.692 375.324 32.1072 376.927 30.584L374.172 27.684C373.589 28.2382 372.533 28.692 370.63 28.692V32.692ZM376.927 30.584C378.529 29.0619 379.19 26.9648 379.19 24.624H375.19C375.19 26.2192 374.757 27.1288 374.172 27.684L376.927 30.584ZM379.19 24.624C379.19 22.3235 378.46 20.2883 376.81 18.7949L374.126 21.7611C374.771 22.3451 375.19 23.2072 375.19 24.624H379.19ZM376.882 18.8638C375.29 17.2717 373.087 16.638 370.63 16.638V20.638C372.436 20.638 373.459 21.0976 374.054 21.6922L376.882 18.8638ZM370.63 16.638H362.676V20.638H370.63V16.638ZM360.676 18.638V30.692H364.676V18.638H360.676ZM406.065 58.818L404.868 60.4204L404.874 60.4253L404.881 60.4302L406.065 58.818ZM399.095 45.042V43.042H396.981L397.098 45.1519L399.095 45.042ZM416.233 45.042L418.226 44.8804L418.077 43.042H416.233V45.042ZM418.037 49.47L416.703 50.9605L416.703 50.9605L418.037 49.47ZM425.663 49.798L426.878 51.3867L426.884 51.3817L426.89 51.3767L425.663 49.798ZM424.761 42.746L425.772 41.0206L425.772 41.0206L424.761 42.746ZM417.053 39.63L416.42 41.5274L416.429 41.5303L416.438 41.5331L417.053 39.63ZM407.869 36.022L406.941 37.7937L406.966 37.8068L406.991 37.8191L407.869 36.022ZM401.801 30.856L400.191 32.0437L400.207 32.0653L400.224 32.0865L401.801 30.856ZM402.047 12.406L403.679 13.562L403.684 13.5541L403.69 13.5462L402.047 12.406ZM409.755 6.338L408.985 4.49184L408.985 4.49184L409.755 6.338ZM436.979 9.044L435.734 10.6099L435.746 10.6193L435.758 10.6284L436.979 9.044ZM443.457 22.246V24.246H445.555L445.454 22.15L443.457 22.246ZM425.991 22.246L423.992 22.3085L424.052 24.246H425.991V22.246ZM424.351 18.31L423.022 19.8048L423.042 19.8226L423.062 19.8398L424.351 18.31ZM417.545 18.064L418.906 19.5296L418.906 19.5296L417.545 18.064ZM417.627 23.968L416.212 25.3822L416.259 25.4293L416.31 25.4732L417.627 23.968ZM420.825 26.018L419.962 27.8223L419.994 27.8378L420.027 27.8521L420.825 26.018ZM426.401 28.15L425.731 30.0344L425.741 30.0381L425.751 30.0416L426.401 28.15ZM435.421 31.922L434.477 33.6856L434.502 33.6985L434.526 33.7109L435.421 31.922ZM441.571 37.088L439.975 38.2942L439.992 38.316L440.009 38.3374L441.571 37.088ZM441.571 54.718L439.886 53.6399L439.878 53.652L439.871 53.6641L441.571 54.718ZM434.109 61.196L433.238 59.3953L433.226 59.4011L434.109 61.196ZM422.629 61.574C416.221 61.574 411.145 60.0665 407.248 57.2058L404.881 60.4302C409.622 63.9108 415.589 65.574 422.629 65.574V61.574ZM407.261 57.2156C403.472 54.3855 401.391 50.3709 401.092 44.9321L397.098 45.1519C397.454 51.6305 400.02 56.7999 404.868 60.4204L407.261 57.2156ZM399.095 47.042H416.233V43.042H399.095V47.042ZM414.239 45.2036C414.426 47.5062 415.139 49.5607 416.703 50.9605L419.37 47.9795C418.857 47.5206 418.367 46.6232 418.226 44.8804L414.239 45.2036ZM416.703 50.9605C418.172 52.2745 420.015 52.864 422.055 52.864V48.864C420.815 48.864 419.979 48.5241 419.37 47.9795L416.703 50.9605ZM422.055 52.864C423.853 52.864 425.517 52.4272 426.878 51.3867L424.448 48.2093C423.95 48.5901 423.208 48.864 422.055 48.864V52.864ZM426.89 51.3767C428.391 50.21 429.139 48.5736 429.139 46.682H425.139C425.139 47.4144 424.903 47.8554 424.435 48.2193L426.89 51.3767ZM429.139 46.682C429.139 44.2077 427.907 42.2721 425.772 41.0206L423.749 44.4714C424.785 45.0785 425.139 45.767 425.139 46.682H429.139ZM425.772 41.0206C423.99 39.9759 421.248 38.8837 417.667 37.7269L416.438 41.5331C419.964 42.6723 422.361 43.6574 423.749 44.4714L425.772 41.0206ZM417.685 37.7326C413.959 36.4905 410.988 35.3197 408.746 34.2249L406.991 37.8191C409.451 39.0203 412.603 40.2548 416.42 41.5274L417.685 37.7326ZM408.797 34.2503C406.776 33.1922 404.969 31.6643 403.377 29.6255L400.224 32.0865C402.131 34.5304 404.369 36.4465 406.941 37.7937L408.797 34.2503ZM403.41 29.6683C402.033 27.8027 401.259 25.2749 401.259 21.918H397.259C397.259 25.8865 398.179 29.3173 400.191 32.0437L403.41 29.6683ZM401.259 21.918C401.259 18.548 402.095 15.7974 403.679 13.562L400.415 11.25C398.281 14.2626 397.259 17.8533 397.259 21.918H401.259ZM403.69 13.5462C405.311 11.2096 407.564 9.41756 410.524 8.18415L408.985 4.49184C405.386 5.99177 402.499 8.24506 400.403 11.2658L403.69 13.5462ZM410.524 8.18415C413.522 6.93472 416.972 6.288 420.907 6.288V2.288C416.532 2.288 412.547 3.00794 408.985 4.49184L410.524 8.18415ZM420.907 6.288C427.324 6.288 432.196 7.79881 435.734 10.6099L438.223 7.47808C433.78 3.94785 427.938 2.288 420.907 2.288V6.288ZM435.758 10.6284C439.282 13.3426 441.21 17.1673 441.459 22.342L445.454 22.15C445.156 15.9541 442.766 10.9774 438.199 7.45954L435.758 10.6284ZM443.457 20.246H425.991V24.246H443.457V20.246ZM427.99 22.1835C427.923 20.0409 427.23 18.1199 425.639 16.7802L423.062 19.8398C423.549 20.2494 423.949 20.9525 423.992 22.3085L427.99 22.1835ZM425.679 16.8152C424.258 15.5515 422.467 14.998 420.497 14.998V18.998C421.697 18.998 422.476 19.3192 423.022 19.8048L425.679 16.8152ZM420.497 14.998C418.871 14.998 417.375 15.4922 416.184 16.5984L418.906 19.5296C419.245 19.2144 419.717 18.998 420.497 18.998V14.998ZM416.184 16.5984C414.911 17.7799 414.397 19.3819 414.397 21.098H418.397C418.397 20.1901 418.647 19.7695 418.906 19.5296L416.184 16.5984ZM414.397 21.098C414.397 22.7564 415.043 24.2124 416.212 25.3822L419.041 22.5538C418.571 22.0836 418.397 21.6262 418.397 21.098H414.397ZM416.31 25.4732C417.345 26.3794 418.572 27.1575 419.962 27.8223L421.688 24.2137C420.563 23.6759 419.657 23.0872 418.944 22.4628L416.31 25.4732ZM420.027 27.8521C421.348 28.4266 423.259 29.1555 425.731 30.0344L427.071 26.2656C424.623 25.3952 422.815 24.7027 421.622 24.1839L420.027 27.8521ZM425.751 30.0416C429.354 31.2783 432.253 32.4957 434.477 33.6856L436.364 30.1584C433.887 28.8336 430.773 27.5364 427.05 26.2584L425.751 30.0416ZM434.526 33.7109C436.644 34.7696 438.458 36.2871 439.975 38.2942L443.166 35.8818C441.294 33.4062 439.008 31.4797 436.315 30.1331L434.526 33.7109ZM440.009 38.3374C441.418 40.0993 442.195 42.418 442.195 45.452H446.195C446.195 41.7073 445.221 38.45 443.132 35.8386L440.009 38.3374ZM442.195 45.452C442.195 48.5384 441.417 51.2485 439.886 53.6399L443.255 55.7961C445.223 52.7209 446.195 49.2536 446.195 45.452H442.195ZM439.871 53.6641C438.402 56.0335 436.223 57.9526 433.238 59.3953L434.979 62.9967C438.554 61.2687 441.35 58.8692 443.27 55.7719L439.871 53.6641ZM433.226 59.4011C430.332 60.8238 426.82 61.574 422.629 61.574V65.574C427.293 65.574 431.435 64.7388 434.991 62.9909L433.226 59.4011ZM467.738 18.064V16.064H465.738V18.064H467.738ZM467.738 27.494H465.738V29.494H467.738V27.494ZM486.188 27.494H488.188V25.494H486.188V27.494ZM486.188 39.712V41.712H488.188V39.712H486.188ZM467.738 39.712V37.712H465.738V39.712H467.738ZM467.738 50.126H465.738V52.126H467.738V50.126ZM488.648 50.126H490.648V48.126H488.648V50.126ZM488.648 63V65H490.648V63H488.648ZM451.666 63H449.666V65H451.666V63ZM451.666 5.19V3.19H449.666V5.19H451.666ZM488.648 5.19H490.648V3.19H488.648V5.19ZM488.648 18.064V20.064H490.648V18.064H488.648ZM465.738 18.064V27.494H469.738V18.064H465.738ZM467.738 29.494H486.188V25.494H467.738V29.494ZM484.188 27.494V39.712H488.188V27.494H484.188ZM486.188 37.712H467.738V41.712H486.188V37.712ZM465.738 39.712V50.126H469.738V39.712H465.738ZM467.738 52.126H488.648V48.126H467.738V52.126ZM486.648 50.126V63H490.648V50.126H486.648ZM488.648 61H451.666V65H488.648V61ZM453.666 63V5.19H449.666V63H453.666ZM451.666 7.19H488.648V3.19H451.666V7.19ZM486.648 5.19V18.064H490.648V5.19H486.648ZM488.648 16.064H467.738V20.064H488.648V16.064Z" fill="url(#paint0_linear_4_4)" mask="url(#path-1-outside-1_4_4)"/>
</g>
<defs>
<filter id="filter0_d_4_4" x="0.593994" y="0.287994" width="496.054" height="75.286" filterUnits="userSpaceOnUse" color-interpolation-filters="sRGB">
<feFlood flood-opacity="0" result="BackgroundImageFix"/>
<feColorMatrix in="SourceAlpha" type="matrix" values="0 0 0 0 0 0 0 0 0 0 0 0 0 0 0 0 0 0 127 0" result="hardAlpha"/>
<feOffset dy="4"/>
<feGaussianBlur stdDeviation="4"/>
<feComposite in2="hardAlpha" operator="out"/>
<feColorMatrix type="matrix" values="0 0 0 0 0 0 0 0 0 0 0 0 0 0 0 0 0 0 0.5 0"/>
<feBlend mode="normal" in2="BackgroundImageFix" result="effect1_dropShadow_4_4"/>
<feBlend mode="normal" in="SourceGraphic" in2="effect1_dropShadow_4_4" result="shape"/>
</filter>
<linearGradient id="paint0_linear_4_4" x1="-3" y1="34.5" x2="499" y2="34.5" gradientUnits="userSpaceOnUse">
<stop stop-color="#21D7FF"/>
<stop offset="1" stop-color="#CD1FE2"/>
</linearGradient>
</defs>
</svg>
