<svg width="289" height="102" viewBox="0 0 289 102" fill="none" xmlns="http://www.w3.org/2000/svg">
<g clip-path="url(#clip0_3_7466)">
<path d="M266.502 26.9631C266.502 17.1483 257.993 9 247.635 9C237.278 9 228.769 17.1483 228.769 26.9631V32.7037H221V74L247.635 86.4068L274.271 74V32.8898H266.502V26.9631ZM238.386 26.9631C238.386 22.334 242.456 18.6304 247.635 18.6304C252.815 18.6304 256.885 22.334 256.885 26.9631V32.7037H238.386V26.9631ZM263.543 67.3338L247.635 74.741L231.728 67.3338V42.5185H263.543V67.3338Z" fill="white"/>
<path d="M101.383 28.9434H130.012V36.4854L114.442 57.604H130.012V66.4882H101.383V58.9444L116.953 37.8259H101.383V28.9434Z" fill="white"/>
<path d="M197.981 52.5755C201.498 51.2351 205.181 47.7159 205.181 41.5142C205.181 33.9721 199.991 29.1108 192.29 29.1108H174.711V66.4883H184.421V53.9176H188.11L194.975 66.4883H206.188L197.981 52.5755ZM191.118 45.2007H184.421V37.6586H191.118C193.629 37.6586 195.304 39.1681 195.304 41.3469C195.304 43.693 193.629 45.2007 191.118 45.2007Z" fill="white"/>
<path d="M151.099 28.4397C139.715 28.4397 131.678 36.6528 131.678 47.7158C131.678 58.7788 139.882 66.9903 151.099 66.9903C162.316 66.9903 170.685 58.7771 170.685 47.7158C170.685 36.6546 162.49 28.4397 151.099 28.4397ZM151.099 58.2751C145.406 58.2751 141.548 53.9175 141.548 47.7158C141.548 41.3468 145.397 37.1566 151.099 37.1566C156.801 37.1566 160.809 41.5141 160.809 47.7158C160.809 53.9175 156.797 58.2751 151.099 58.2751Z" fill="white"/>
<path d="M69.5742 28.9434H96.6958V37.6585H79.2839V43.1891H96.1944V51.7387H79.2839V57.7713H96.6958V66.4882H69.5742V28.9434Z" fill="white"/>
<path d="M65.0545 41.5142C65.0545 33.9721 59.8646 29.1108 52.164 29.1108H34.585V66.4883H44.2946V53.9176H47.9786L54.8417 66.4883H66.0591L57.8554 52.5755C61.3705 51.2351 65.0545 47.7159 65.0545 41.5142ZM50.9838 45.2007H44.2946V37.6586H50.9838C53.496 37.6586 55.1692 39.1681 55.1692 41.3469C55.176 43.693 53.5029 45.2007 50.9838 45.2007Z" fill="white"/>
<path d="M-0.0703125 28.9434H30.2321V37.8259H19.8522V66.4883H10.1425V37.8259H-0.0703125V28.9434Z" fill="white"/>
</g>
<defs>
<clipPath id="clip0_3_7466">
<rect width="289" height="100" fill="white"/>
</clipPath>
</defs>
</svg>
