<svg width="115" height="16" viewBox="0 0 115 16" fill="none" xmlns="http://www.w3.org/2000/svg">
<g clip-path="url(#clip0_3_7448)">
<g clip-path="url(#clip1_3_7448)">
<path d="M16.438 12.0216L13.8882 2.37361H15.7765L17.5131 10.0507L19.5529 2.37361H21.4963L23.4811 10.0507L25.2176 2.37361H27.1197L24.5009 12.0216H22.406L20.4901 4.86832L18.5192 12.0216H16.438ZM30.5382 12.187C29.8491 12.187 29.2381 12.0399 28.7052 11.7459C28.1722 11.4519 27.7541 11.0384 27.4509 10.5055C27.1477 9.97253 26.9961 9.35689 26.9961 8.65856C26.9961 7.95107 27.1431 7.32166 27.4371 6.77032C27.7403 6.21904 28.1538 5.79177 28.6776 5.48853C29.2105 5.17612 29.8353 5.01992 30.552 5.01992C31.2228 5.01992 31.8155 5.16691 32.33 5.46095C32.8446 5.75499 33.2443 6.15928 33.5291 6.67383C33.8231 7.17922 33.9702 7.74432 33.9702 8.36913C33.9702 8.47022 33.9656 8.57588 33.9564 8.68613C33.9564 8.79639 33.9518 8.91125 33.9426 9.03072H28.7465C28.7832 9.56364 28.967 9.98174 29.2978 10.2849C29.6378 10.5882 30.0467 10.7398 30.5245 10.7398C30.8828 10.7398 31.1815 10.6617 31.4203 10.5055C31.6684 10.3401 31.8522 10.1287 31.9717 9.87144H33.7634C33.6348 10.3033 33.4188 10.6984 33.1156 11.0568C32.8216 11.4059 32.4541 11.6816 32.013 11.8837C31.5812 12.0859 31.0896 12.187 30.5382 12.187ZM30.552 6.45331C30.1202 6.45331 29.7389 6.57738 29.408 6.82548C29.0773 7.06436 28.866 7.43191 28.7741 7.9281H32.1784C32.1509 7.47786 31.9854 7.11951 31.6822 6.853C31.379 6.58654 31.0023 6.45331 30.552 6.45331ZM39.0926 12.187C38.5781 12.187 38.1278 12.0905 37.7419 11.8976C37.356 11.7046 37.0436 11.4335 36.8047 11.0844L36.6117 12.0216H35.0405V2.09796H36.8047V6.16388C37.0252 5.86069 37.3146 5.59418 37.673 5.3645C38.0405 5.13478 38.5137 5.01992 39.0926 5.01992C39.7358 5.01992 40.3101 5.17612 40.8155 5.48853C41.3209 5.80093 41.7206 6.2282 42.0146 6.77032C42.3086 7.31245 42.4556 7.9281 42.4556 8.61722C42.4556 9.30639 42.3086 9.92199 42.0146 10.4641C41.7206 10.997 41.3209 11.4197 40.8155 11.7321C40.3101 12.0353 39.7358 12.187 39.0926 12.187ZM38.7205 10.6433C39.281 10.6433 39.745 10.455 40.1125 10.0782C40.4801 9.70147 40.6639 9.2145 40.6639 8.61722C40.6639 8.01999 40.4801 7.52836 40.1125 7.14248C39.745 6.75656 39.281 6.56357 38.7205 6.56357C38.1508 6.56357 37.6822 6.75656 37.3146 7.14248C36.9563 7.5192 36.7771 8.00617 36.7771 8.60345C36.7771 9.20068 36.9563 9.69226 37.3146 10.0782C37.6822 10.455 38.1508 10.6433 38.7205 10.6433ZM46.8158 12.187C46.1817 12.187 45.6074 12.0767 45.0929 11.8562C44.5783 11.6265 44.1648 11.2773 43.8524 10.8087C43.54 10.3401 43.3746 9.75202 43.3562 9.04448H45.0929C45.1021 9.51309 45.2537 9.90822 45.5477 10.2298C45.8509 10.5422 46.2736 10.6984 46.8158 10.6984C47.3303 10.6984 47.7254 10.556 48.0011 10.2712C48.2768 9.9863 48.4145 9.62795 48.4145 9.19608C48.4145 8.69074 48.2308 8.30942 47.8632 8.05212C47.5049 7.78566 47.0409 7.65243 46.4712 7.65243H45.7545V6.20522H46.4849C46.9535 6.20522 47.3441 6.09497 47.6565 5.87445C47.9689 5.65394 48.1251 5.32772 48.1251 4.89585C48.1251 4.53752 48.0057 4.25267 47.7667 4.04134C47.5371 3.82081 47.2154 3.71055 46.8019 3.71055C46.3517 3.71055 45.998 3.84378 45.7407 4.11025C45.4926 4.37672 45.3547 4.70291 45.3272 5.08884H43.6043C43.6411 4.19754 43.9489 3.49462 44.5278 2.98006C45.1159 2.4655 45.8739 2.20822 46.8019 2.20822C47.4635 2.20822 48.0194 2.32767 48.4695 2.56658C48.929 2.79629 49.2736 3.1041 49.5033 3.49002C49.7425 3.87594 49.8616 4.30321 49.8616 4.77182C49.8616 5.31396 49.7102 5.77335 49.4069 6.15012C49.1126 6.51763 48.7453 6.76572 48.3043 6.89439C48.8464 7.00465 49.2873 7.27111 49.6276 7.69377C49.9675 8.10727 50.1374 8.63103 50.1374 9.265C50.1374 9.79796 50.0088 10.2849 49.7515 10.726C49.4943 11.167 49.1174 11.5208 48.6214 11.7872C48.1343 12.0538 47.5325 12.187 46.8158 12.187ZM51.4564 12.0216V2.37361H55.0261C55.7979 2.37361 56.4367 2.50225 56.9422 2.75953C57.4472 3.01681 57.8241 3.37057 58.0723 3.82081C58.3201 4.27105 58.4444 4.77642 58.4444 5.33693C58.4444 5.86985 58.3248 6.36143 58.0861 6.81166C57.8469 7.25274 57.4748 7.61109 56.9697 7.88676C56.4643 8.15322 55.8164 8.28645 55.0261 8.28645H53.2206V12.0216H51.4564ZM53.2206 6.853H54.916C55.5316 6.853 55.9725 6.71977 56.2393 6.45331C56.5146 6.17765 56.6527 5.80553 56.6527 5.33693C56.6527 4.85911 56.5146 4.48698 56.2393 4.22051C55.9725 3.94486 55.5316 3.80703 54.916 3.80703H53.2206V6.853ZM61.2998 12.187C60.7118 12.187 60.229 12.0951 59.8527 11.9113C59.4758 11.7183 59.1958 11.4657 59.0116 11.1533C58.8279 10.8408 58.7363 10.4963 58.7363 10.1195C58.7363 9.48556 58.9841 8.97096 59.4806 8.57588C59.9765 8.18079 60.7208 7.9832 61.7132 7.9832H63.4499V7.81784C63.4499 7.34919 63.3165 7.00465 63.0503 6.78413C62.7835 6.56357 62.4527 6.45331 62.0578 6.45331C61.6995 6.45331 61.3872 6.5406 61.1204 6.71522C60.8541 6.88058 60.6885 7.12867 60.6244 7.45949H58.9015C58.9475 6.96331 59.1127 6.53144 59.3975 6.16388C59.6918 5.79633 60.0686 5.5161 60.5281 5.32312C60.9875 5.12097 61.502 5.01992 62.0716 5.01992C63.0455 5.01992 63.813 5.26341 64.3731 5.75038C64.9336 6.2374 65.2141 6.92653 65.2141 7.81784V12.0216H63.7119L63.5463 10.919C63.3441 11.2865 63.0593 11.5897 62.6919 11.8286C62.3336 12.0675 61.8694 12.187 61.2998 12.187ZM61.6995 10.8087C62.205 10.8087 62.5951 10.6433 62.8709 10.3125C63.1556 9.98174 63.335 9.57285 63.4086 9.08582H61.9064C61.4375 9.08582 61.1024 9.17311 60.9002 9.34773C60.698 9.51309 60.5969 9.71984 60.5969 9.96793C60.5969 10.2344 60.698 10.4411 60.9002 10.5882C61.1024 10.7352 61.3686 10.8087 61.6995 10.8087ZM67.1098 15.0538L68.6946 11.5667H68.2812L65.6214 5.18533H67.537L69.4531 9.99551L71.4513 5.18533H73.3261L68.9841 15.0538H67.1098ZM74.0656 12.0216V5.18533H75.6233L75.7747 6.10878C75.9954 5.77796 76.285 5.5161 76.6433 5.32312C77.0107 5.12097 77.4331 5.01992 77.911 5.01992C78.9676 5.01992 79.7166 5.42882 80.1575 6.24656C80.4057 5.86985 80.7365 5.57121 81.15 5.35069C81.5729 5.13018 82.0323 5.01992 82.5283 5.01992C83.4197 5.01992 84.1041 5.28638 84.582 5.8193C85.06 6.35226 85.2987 7.13327 85.2987 8.16238V12.0216H83.5345V8.32779C83.5345 7.73971 83.4196 7.28948 83.1899 6.97707C82.9692 6.66467 82.6246 6.50847 82.1562 6.50847C81.6782 6.50847 81.2923 6.68304 80.9986 7.03223C80.7138 7.38137 80.5714 7.86834 80.5714 8.4932V12.0216H78.8072V8.32779C78.8072 7.73971 78.6923 7.28948 78.4626 6.97707C78.2329 6.66467 77.8788 6.50847 77.4013 6.50847C76.9324 6.50847 76.5512 6.68304 76.257 7.03223C75.9722 7.38137 75.8298 7.86834 75.8298 8.4932V12.0216H74.0656ZM89.8818 12.187C89.1926 12.187 88.5818 12.0399 88.0488 11.7459C87.5157 11.4519 87.0976 11.0384 86.7943 10.5055C86.491 9.97253 86.3396 9.35689 86.3396 8.65856C86.3396 7.95107 86.4867 7.32166 86.7805 6.77032C87.0838 6.21904 87.4972 5.79177 88.0212 5.48853C88.5542 5.17612 89.1789 5.01992 89.8956 5.01992C90.5662 5.01992 91.159 5.16691 91.6735 5.46095C92.188 5.75499 92.5877 6.15928 92.8725 6.67383C93.1667 7.17922 93.3139 7.74432 93.3139 8.36913C93.3139 8.47022 93.3091 8.57588 93.3001 8.68613C93.3001 8.79639 93.2954 8.91125 93.2863 9.03072H88.09C88.1266 9.56364 88.3108 9.98174 88.6416 10.2849C88.9814 10.5882 89.3901 10.7398 89.868 10.7398C90.2264 10.7398 90.5249 10.6617 90.7641 10.5055C91.0119 10.3401 91.1956 10.1287 91.3152 9.87144H93.1069C92.9783 10.3033 92.7623 10.6984 92.4591 11.0568C92.1653 11.4059 91.7974 11.6816 91.3565 11.8837C90.9246 12.0859 90.4333 12.187 89.8818 12.187ZM89.8956 6.45331C89.4636 6.45331 89.0825 6.57738 88.7517 6.82548C88.4209 7.06436 88.2097 7.43191 88.1176 7.9281H91.5221C91.4946 7.47786 91.3289 7.11951 91.0257 6.853C90.7224 6.58654 90.346 6.45331 89.8956 6.45331ZM94.3842 12.0216V5.18533H95.9414L96.0796 6.34306C96.2908 5.93876 96.5941 5.61715 96.989 5.37827C97.3933 5.13939 97.8666 5.01992 98.4086 5.01992C99.2539 5.01992 99.9108 5.28638 100.38 5.8193C100.848 6.35226 101.083 7.13327 101.083 8.16238V12.0216H99.3185V8.32779C99.3185 7.73971 99.1989 7.28948 98.9601 6.97707C98.7209 6.66467 98.3488 6.50847 97.8433 6.50847C97.3473 6.50847 96.9386 6.68304 96.6168 7.03223C96.3045 7.38137 96.1484 7.86834 96.1484 8.4932V12.0216H94.3842ZM105.402 12.0216C104.685 12.0216 104.111 11.847 103.679 11.4978C103.247 11.1487 103.032 10.5284 103.032 9.63716V6.66007H101.86V5.18533H103.032L103.238 3.3522H104.796V5.18533H106.643V6.66007H104.796V9.65092C104.796 9.98174 104.865 10.2114 105.002 10.3401C105.149 10.4595 105.398 10.5193 105.746 10.5193H106.601V12.0216H105.402ZM110.569 12.187C109.963 12.187 109.43 12.0905 108.97 11.8976C108.511 11.6954 108.143 11.4197 107.868 11.0706C107.592 10.7214 107.427 10.3171 107.372 9.85767H109.15C109.205 10.1241 109.352 10.3539 109.59 10.5468C109.839 10.7306 110.156 10.8225 110.542 10.8225C110.928 10.8225 111.208 10.7444 111.382 10.5882C111.566 10.432 111.658 10.2528 111.658 10.0507C111.658 9.75662 111.529 9.55903 111.272 9.45798C111.015 9.34773 110.657 9.24203 110.197 9.14098C109.903 9.07666 109.604 8.99854 109.301 8.90665C108.998 8.81476 108.718 8.6999 108.46 8.56211C108.212 8.41507 108.01 8.23129 107.854 8.01078C107.698 7.78105 107.62 7.50083 107.62 7.17001C107.62 6.56357 107.859 6.05363 108.336 5.64012C108.823 5.22667 109.503 5.01992 110.376 5.01992C111.185 5.01992 111.828 5.20826 112.306 5.58502C112.793 5.96174 113.082 6.48089 113.174 7.14248H111.507C111.405 6.63709 111.024 6.3844 110.362 6.3844C110.031 6.3844 109.774 6.44871 109.59 6.57738C109.416 6.70601 109.328 6.86682 109.328 7.05975C109.328 7.2619 109.462 7.42271 109.729 7.54217C109.995 7.66164 110.348 7.77189 110.79 7.87294C111.267 7.9832 111.704 8.10727 112.099 8.2451C112.503 8.37373 112.825 8.57127 113.064 8.83773C113.303 9.09503 113.422 9.46714 113.422 9.95417C113.431 10.3768 113.321 10.7581 113.091 11.0981C112.862 11.4381 112.531 11.7046 112.099 11.8976C111.667 12.0905 111.157 12.187 110.569 12.187Z" fill="#0AC18E"/>
<path d="M5.42917 13.0898C6.88336 13.0898 8.0622 11.9109 8.0622 10.4568C8.0622 9.00258 6.88336 7.82373 5.42917 7.82373C3.97499 7.82373 2.79614 9.00258 2.79614 10.4568C2.79614 11.9109 3.97499 13.0898 5.42917 13.0898Z" fill="#0AC18E"/>
<path d="M8.33668 8.20779C9.48791 8.20779 10.4212 7.27454 10.4212 6.12331C10.4212 4.97207 9.48791 4.03882 8.33668 4.03882C7.18545 4.03882 6.2522 4.97207 6.2522 6.12331C6.2522 7.27454 7.18545 8.20779 8.33668 8.20779Z" fill="#0AC18E"/>
<path d="M4.22249 5.19076C5.25253 5.19076 6.08755 4.35574 6.08755 3.3257C6.08755 2.29565 5.25253 1.46063 4.22249 1.46063C3.19244 1.46063 2.35742 2.29565 2.35742 3.3257C2.35742 4.35574 3.19244 5.19076 4.22249 5.19076Z" fill="#0AC18E"/>
<path d="M3.12542 7.82377C3.73133 7.82377 4.22251 7.33258 4.22251 6.72667C4.22251 6.12076 3.73133 5.62958 3.12542 5.62958C2.51951 5.62958 2.02832 6.12076 2.02832 6.72667C2.02832 7.33258 2.51951 7.82377 3.12542 7.82377Z" fill="#0AC18E"/>
</g>
</g>
<defs>
<clipPath id="clip0_3_7448">
<rect width="113.39" height="15" fill="white" transform="translate(0.72998 0.0599976)"/>
</clipPath>
<clipPath id="clip1_3_7448">
<rect width="113.39" height="14.9984" fill="white" transform="translate(0.72998 0.060791)"/>
</clipPath>
</defs>
</svg>
